<svg width="24" height="24" viewBox="0 0 24 24" fill="none" xmlns="http://www.w3.org/2000/svg">
<path fill-rule="evenodd" clip-rule="evenodd" d="M5 3.15039H19C20.1046 3.15039 21 4.03079 21 5.11682V18.8818C21 19.9679 20.1046 20.8483 19 20.8483H5C3.89543 20.8483 3 19.9679 3 18.8818V5.11682C3 4.03079 3.89543 3.15039 5 3.15039ZM8 17.8986C8.27614 17.8986 8.5 17.6785 8.5 17.407V10.5245C8.5 10.253 8.27614 10.0329 8 10.0329H6.5C6.22386 10.0329 6 10.253 6 10.5245V17.407C6 17.6785 6.22386 17.8986 6.5 17.8986H8ZM7.25 9.04968C6.42157 9.04968 5.75 8.38938 5.75 7.57486C5.75 6.76033 6.42157 6.10004 7.25 6.10004C8.07843 6.10004 8.75 6.76033 8.75 7.57486C8.75 8.38938 8.07843 9.04968 7.25 9.04968ZM17.5 17.8986C17.7761 17.8986 18 17.6785 18 17.407V12.8842C18.0325 11.3217 16.8576 9.98818 15.28 9.79693C14.177 9.69787 13.1083 10.2044 12.5 11.1144V10.5245C12.5 10.253 12.2761 10.0329 12 10.0329H10.5C10.2239 10.0329 10 10.253 10 10.5245V17.407C10 17.6785 10.2239 17.8986 10.5 17.8986H12C12.2761 17.8986 12.5 17.6785 12.5 17.407V13.72C12.5 12.9055 13.1716 12.2451 14 12.2451C14.8284 12.2451 15.5 12.9055 15.5 13.72V17.407C15.5 17.6785 15.7239 17.8986 16 17.8986H17.5Z" fill="#707070"/>
</svg>
