<svg width="28" height="28" viewBox="0 0 28 28" fill="none" xmlns="http://www.w3.org/2000/svg">
<path d="M23.334 9.33268L14.0007 15.166L4.66732 9.33268V6.99935L14.0007 12.8327L23.334 6.99935M23.334 4.66602H4.66732C3.37232 4.66602 2.33398 5.70435 2.33398 6.99935V20.9993C2.33398 21.6182 2.57982 22.2117 3.0174 22.6493C3.45499 23.0868 4.04848 23.3327 4.66732 23.3327H23.334C23.9528 23.3327 24.5463 23.0868 24.9839 22.6493C25.4215 22.2117 25.6673 21.6182 25.6673 20.9993V6.99935C25.6673 6.38051 25.4215 5.78702 24.9839 5.34943C24.5463 4.91185 23.9528 4.66602 23.334 4.66602Z" fill="#707070"/>
</svg>
