<svg width="28" height="28" viewBox="0 0 28 28" fill="none" xmlns="http://www.w3.org/2000/svg">
<path d="M27.3888 7.26138C27.2277 6.66751 26.9141 6.12613 26.479 5.69104C26.0439 5.25594 25.5025 4.94227 24.9086 4.78119C22.7342 4.1875 13.9825 4.1875 13.9825 4.1875C13.9825 4.1875 5.23031 4.205 3.0555 4.79869C2.46164 4.95977 1.92026 5.27344 1.48516 5.70854C1.05006 6.14363 0.73639 6.68501 0.575312 7.27887C0 9.45369 0 14.0006 0 14.0006C0 14.0006 0 18.5476 0.59325 20.7399C0.754328 21.3337 1.068 21.8751 1.5031 22.3102C1.9382 22.7453 2.47957 23.059 3.07344 23.2201C5.24781 23.8137 14 23.8137 14 23.8137C14 23.8137 22.7522 23.8137 24.927 23.2205C25.5209 23.0594 26.0622 22.7457 26.4973 22.3106C26.9324 21.8756 27.2461 21.3342 27.4072 20.7403C28 18.5655 28 14.0006 28 14.0006C28 14.0006 27.9825 9.45369 27.3888 7.26138Z" fill="#707070"/>
<path d="M11.1957 18.2054L18.4561 14.0002L11.1953 9.79492L11.1957 18.2054Z" fill="#171717"/>
</svg>
