<svg width="338" height="321" viewBox="0 0 338 321" fill="none" xmlns="http://www.w3.org/2000/svg">
<path d="M313.9 18.5356L0.450317 47.7095L23.7102 297.372L337.16 268.198L313.9 18.5356Z" fill="#1975B8"/>
<path d="M118.888 246.049L116.349 246.307L104.566 231.861L106.139 247.344L103.6 247.602L101.622 228.13L104.16 227.872L115.941 242.289L114.371 226.835L116.909 226.577L118.888 246.049ZM129.908 245.183C128.476 245.328 127.141 245.135 125.903 244.603C124.684 244.069 123.679 243.241 122.889 242.119C122.115 240.976 121.648 239.614 121.487 238.034C121.329 236.471 121.523 235.061 122.072 233.803C122.637 232.524 123.474 231.509 124.581 230.758C125.687 229.988 126.965 229.529 128.415 229.382C129.866 229.234 131.21 229.426 132.448 229.958C133.684 230.472 134.697 231.289 135.488 232.412C136.297 233.532 136.782 234.882 136.942 236.463C137.103 238.044 136.891 239.475 136.307 240.756C135.74 242.016 134.894 243.032 133.77 243.804C132.646 244.575 131.359 245.035 129.908 245.183ZM129.681 242.951C130.593 242.858 131.426 242.557 132.183 242.048C132.939 241.539 133.515 240.833 133.912 239.928C134.327 239.021 134.472 237.954 134.348 236.727C134.223 235.499 133.875 234.483 133.305 233.676C132.734 232.87 132.038 232.302 131.215 231.972C130.391 231.624 129.523 231.496 128.611 231.588C127.682 231.683 126.848 231.984 126.11 232.491C125.389 232.977 124.84 233.672 124.462 234.575C124.084 235.477 123.957 236.543 124.082 237.77C124.208 239.016 124.538 240.044 125.072 240.854C125.623 241.663 126.302 242.242 127.108 242.592C127.912 242.924 128.77 243.043 129.681 242.951ZM149.06 223.338L151.035 242.782L148.497 243.04L146.521 223.596L149.06 223.338ZM161.229 226.019C163.089 225.83 164.653 226.244 165.921 227.262C167.187 228.26 167.928 229.82 168.144 231.94L169.059 240.951L166.549 241.206L165.67 232.558C165.515 231.033 165.016 229.909 164.172 229.187C163.326 228.446 162.243 228.143 160.923 228.277C159.584 228.413 158.557 228.94 157.842 229.858C157.146 230.775 156.879 232.032 157.042 233.632L157.901 242.085L155.362 242.343L153.809 227.055L156.347 226.797L156.568 228.973C156.991 228.141 157.609 227.468 158.421 226.953C159.251 226.436 160.187 226.125 161.229 226.019ZM174.962 227.02L175.878 236.03C175.953 236.774 176.165 237.288 176.513 237.572C176.86 237.838 177.424 237.931 178.205 237.851L180.074 237.661L180.292 239.809L178.004 240.042C176.591 240.185 175.498 239.968 174.725 239.389C173.952 238.809 173.49 237.776 173.339 236.288L172.423 227.278L170.443 227.479L170.23 225.386L172.211 225.185L171.82 221.335L174.358 221.078L174.749 224.927L178.739 224.522L178.951 226.614L174.962 227.02ZM196.48 229.85C196.529 230.334 196.553 230.848 196.552 231.393L184.333 232.634C184.58 234.131 185.211 235.26 186.228 236.021C187.261 236.762 188.448 237.064 189.787 236.928C190.884 236.817 191.77 236.473 192.444 235.897C193.135 235.301 193.586 234.56 193.797 233.674L196.53 233.396C196.271 234.907 195.574 236.19 194.441 237.244C193.306 238.28 191.828 238.891 190.005 239.076C188.554 239.224 187.219 239.03 186 238.497C184.8 237.961 183.813 237.131 183.041 236.007C182.268 234.864 181.801 233.502 181.64 231.922C181.479 230.341 181.655 228.923 182.166 227.669C182.677 226.414 183.468 225.413 184.538 224.665C185.625 223.897 186.913 223.438 188.401 223.287C189.851 223.139 191.167 223.325 192.347 223.844C193.527 224.363 194.471 225.15 195.18 226.205C195.905 227.24 196.338 228.455 196.48 229.85ZM193.804 229.586C193.706 228.619 193.408 227.813 192.91 227.169C192.41 226.506 191.771 226.035 190.991 225.757C190.228 225.459 189.4 225.355 188.507 225.446C187.224 225.576 186.168 226.097 185.34 227.008C184.531 227.917 184.134 229.103 184.152 230.567L193.804 229.586ZM201.905 224.677C202.262 223.757 202.826 223.014 203.595 222.447C204.383 221.879 205.372 221.534 206.562 221.413L206.828 224.035L206.159 224.103C203.313 224.392 202.047 226.081 202.361 229.168L203.206 237.481L200.667 237.739L199.114 222.452L201.652 222.194L201.905 224.677ZM216.941 220.358C218.801 220.169 220.365 220.584 221.633 221.601C222.899 222.6 223.64 224.159 223.856 226.279L224.771 235.29L222.261 235.545L221.382 226.897C221.227 225.372 220.728 224.248 219.884 223.526C219.038 222.785 217.955 222.482 216.635 222.616C215.296 222.752 214.269 223.279 213.554 224.197C212.858 225.114 212.591 226.372 212.754 227.971L213.613 236.424L211.074 236.682L209.521 221.394L212.059 221.136L212.28 223.312C212.703 222.48 213.321 221.807 214.133 221.292C214.963 220.775 215.899 220.464 216.941 220.358ZM242.03 225.222C242.08 225.705 242.104 226.22 242.103 226.765L229.884 228.006C230.13 229.503 230.761 230.632 231.778 231.393C232.812 232.134 233.998 232.436 235.337 232.3C236.434 232.188 237.32 231.845 237.994 231.269C238.685 230.672 239.136 229.931 239.347 229.046L242.081 228.768C241.821 230.279 241.124 231.561 239.991 232.616C238.857 233.652 237.378 234.263 235.555 234.448C234.105 234.595 232.77 234.402 231.55 233.868C230.35 233.333 229.364 232.503 228.592 231.379C227.818 230.236 227.351 228.874 227.19 227.293C227.03 225.713 227.205 224.295 227.716 223.04C228.228 221.786 229.019 220.785 230.089 220.037C231.176 219.269 232.463 218.809 233.951 218.658C235.402 218.511 236.717 218.697 237.897 219.216C239.077 219.735 240.021 220.522 240.73 221.577C241.455 222.612 241.889 223.827 242.03 225.222ZM239.354 224.958C239.256 223.991 238.958 223.185 238.46 222.541C237.961 221.877 237.321 221.407 236.541 221.129C235.778 220.831 234.95 220.727 234.058 220.818C232.774 220.948 231.719 221.469 230.89 222.38C230.081 223.289 229.685 224.475 229.702 225.939L239.354 224.958ZM247.973 219.601L248.889 228.612C248.964 229.356 249.176 229.87 249.525 230.154C249.871 230.419 250.435 230.512 251.216 230.433L253.085 230.243L253.303 232.391L251.016 232.623C249.602 232.767 248.509 232.549 247.736 231.97C246.963 231.391 246.501 230.357 246.35 228.87L245.435 219.859L243.454 220.06L243.241 217.968L245.222 217.767L244.831 213.917L247.37 213.659L247.761 217.509L251.75 217.103L251.963 219.196L247.973 219.601Z" fill="white"/>
<path d="M27.9524 26.3667L14.1968 27.647L17.307 61.0306L31.0626 59.7503L27.9524 26.3667Z" fill="black"/>
<path d="M51.9127 285.543L38.1571 286.824L41.2673 320.207L55.0229 318.927L51.9127 285.543Z" fill="black"/>
<path d="M302.484 0.792961L288.728 2.07324L291.838 35.4568L305.594 34.1766L302.484 0.792961Z" fill="black"/>
<path d="M326.594 262.14L312.839 263.42L315.949 296.804L329.705 295.523L326.594 262.14Z" fill="black"/>
<path d="M219.676 171.058C243.502 141.439 238.794 98.123 209.16 74.3089C179.527 50.4947 136.19 55.2003 112.364 84.8191C88.5381 114.438 93.246 157.754 122.879 181.568C152.513 205.382 195.85 200.677 219.676 171.058Z" fill="#1975B8"/>
<path d="M165.949 197.708C152.438 197.68 139.225 193.731 127.916 186.341C116.608 178.95 107.689 168.436 102.246 156.076C96.8016 143.716 95.0663 130.042 97.2502 116.714C99.4341 103.387 105.443 90.9803 114.548 81.0018C123.653 71.0232 135.46 63.9022 148.537 60.5039C161.614 57.1055 175.397 57.5761 188.211 61.8585C201.025 66.1408 212.32 74.0506 220.722 84.6269C229.124 95.2031 234.272 107.991 235.541 121.436C237.233 139.862 231.545 158.207 219.725 172.448C207.905 186.689 190.916 195.664 172.486 197.404C170.287 197.601 168.118 197.708 165.949 197.708ZM166.056 60.0487C163.963 60.0487 161.84 60.1548 159.717 60.3518C142.101 62.0235 125.838 70.517 114.405 84.0164C102.972 97.5159 97.277 114.95 98.5364 132.592C99.7958 150.233 107.91 166.683 121.145 178.423C134.379 190.163 151.684 196.262 169.359 195.417C187.034 194.572 203.677 186.849 215.73 173.9C227.783 160.95 234.289 143.802 233.857 126.12C233.426 108.439 226.091 91.6279 213.421 79.2812C200.751 66.9344 183.751 60.0316 166.056 60.0487Z" fill="white"/>
<path d="M158.562 94.153C176.77 90.8253 193.318 94.7009 208 106.113C208.466 106.454 208.859 106.886 209.153 107.383C209.448 107.88 209.639 108.431 209.716 109.003C209.792 109.576 209.751 110.158 209.596 110.715C209.441 111.271 209.175 111.79 208.814 112.241C208.464 112.684 208.029 113.051 207.535 113.323C207.041 113.594 206.497 113.764 205.936 113.822C205.375 113.88 204.808 113.825 204.269 113.66C203.73 113.495 203.229 113.224 202.796 112.863C197.533 108.675 191.521 105.528 185.08 103.59C175.18 100.613 164.615 100.679 154.753 103.781C144.891 106.882 136.189 112.875 129.775 120.982C127.948 123.273 126.424 125.818 124.861 128.307C123.494 130.471 121.041 131.259 118.92 130.059C116.799 128.859 116.168 126.275 117.427 124.066C125.122 110.481 136.348 101.129 151.105 96.0085C152.261 95.6079 153.433 95.2446 154.624 94.9496C155.921 94.6287 157.249 94.4142 158.562 94.153Z" fill="white"/>
<path d="M163.412 110.702C174.954 108.717 186.726 111.458 197.174 119.606C199.236 121.209 199.538 123.746 197.997 125.732C196.532 127.605 193.937 127.91 191.914 126.344C186.459 122.091 180.339 119.395 173.436 118.93C159.369 117.98 148.479 123.559 140.763 135.368C140.477 135.806 140.223 136.266 139.958 136.718C139.396 137.705 138.466 138.427 137.371 138.727C136.276 139.028 135.107 138.881 134.121 138.319C133.135 137.757 132.412 136.827 132.112 135.732C131.812 134.638 131.959 133.469 132.52 132.482C135.374 127.308 139.266 122.778 143.95 119.176C149.32 115.022 155.332 112.34 163.412 110.702Z" fill="white"/>
<path d="M188.018 135.68C188.189 136.529 188.099 137.41 187.759 138.207C187.42 139.003 186.846 139.678 186.115 140.142C185.373 140.62 184.5 140.853 183.619 140.809C182.738 140.765 181.892 140.446 181.201 139.897C179.043 138.195 176.527 137.006 173.843 136.419C166.347 134.872 159.123 138.195 155.144 145.006C154.203 146.622 152.785 147.42 150.925 147.238C150.215 147.167 149.535 146.92 148.945 146.52C148.355 146.119 147.874 145.577 147.547 144.944C147.22 144.31 147.056 143.605 147.071 142.892C147.085 142.179 147.278 141.481 147.631 140.861C154.308 128.527 170.162 123.803 182.486 130.544C183.895 131.31 185.229 132.204 186.472 133.216C187.197 133.809 187.642 134.74 188.215 135.52L188.018 135.68Z" fill="white"/>
<path d="M171.997 161.797C170.327 162.134 168.594 161.968 167.019 161.318C165.444 160.669 164.097 159.566 163.15 158.15C162.202 156.734 161.697 155.068 161.698 153.364C161.699 151.66 162.207 149.995 163.156 148.58C164.105 147.166 165.454 146.065 167.03 145.418C168.606 144.77 170.339 144.606 172.009 144.946C173.678 145.286 175.209 146.114 176.407 147.325C177.606 148.537 178.417 150.077 178.738 151.75C179.176 153.976 178.711 156.285 177.447 158.169C176.183 160.053 174.223 161.358 171.997 161.797Z" fill="white"/>
<path d="M194.786 86.9336L141.343 159.372" stroke="white" stroke-width="7.39349" stroke-linecap="round"/>
</svg>
