<svg width="458" height="362" viewBox="0 0 458 362" fill="none" xmlns="http://www.w3.org/2000/svg">
<path d="M67.0949 135.9C-22.3124 187.516 -22.3124 271.209 67.0949 322.825C156.502 374.441 301.469 374.45 390.867 322.825C480.265 271.2 480.274 187.516 390.867 135.9C301.459 84.2845 156.493 84.2565 67.0949 135.9Z" fill="#F5F5F5"/>
<path d="M193.918 287.757L186.379 283.402L191.862 280.237C192.846 279.76 193.676 279.015 194.256 278.088C194.837 277.161 195.144 276.09 195.144 274.996C195.144 273.902 194.837 272.831 194.256 271.904C193.676 270.977 192.846 270.232 191.862 269.755L178.214 261.872C176.565 261.005 174.73 260.552 172.867 260.552C171.004 260.552 169.169 261.005 167.52 261.872L158.307 267.194L110.711 239.707C109.076 238.809 107.234 238.354 105.369 238.387C103.499 238.346 101.653 238.802 100.016 239.707L80.5628 250.946C79.1727 251.657 77.9759 252.695 77.0752 253.97C76.1962 255.494 75.9295 257.296 76.3293 259.01L86.409 309.408C86.9936 311.938 88.8885 314.145 92.0435 315.97L105.661 323.792C107.289 324.698 109.13 325.154 110.993 325.112C112.849 325.15 114.683 324.694 116.305 323.792L155.021 301.445L166.29 307.946C167.94 308.81 169.775 309.261 171.637 309.261C173.5 309.261 175.335 308.81 176.985 307.946L193.918 298.24C194.905 297.765 195.738 297.021 196.322 296.094C196.905 295.167 197.214 294.094 197.214 292.998C197.214 291.903 196.905 290.83 196.322 289.903C195.738 288.975 194.905 288.231 193.918 287.757ZM118.946 289.914L116.688 278.564L127.645 284.894L118.946 289.914Z" fill="#E0E0E0"/>
<path d="M269.706 209.337C266.289 207.17 262.52 204.892 258.488 202.564C254.456 200.235 250.424 198.038 246.483 195.941C241.157 193.216 235.563 191.051 229.791 189.48C223.623 187.801 217.264 186.92 210.872 186.86H210.045C203.59 186.894 197.161 187.693 190.894 189.238C183.717 191.038 176.834 193.851 170.452 197.594C163.507 201.626 158.619 205.658 155.524 209.861C152.289 214.306 150.726 218.802 150.878 223.237C151.136 227.905 152.957 232.35 156.048 235.857C159.372 239.762 163.274 243.134 167.62 245.856C171.148 248.093 175.008 250.422 179.09 252.78C183.173 255.139 187.154 257.316 190.833 259.262C196.164 261.98 201.761 264.142 207.535 265.713C213.699 267.397 220.055 268.278 226.445 268.333H227.332C233.787 268.301 240.216 267.503 246.483 265.955C253.66 264.157 260.543 261.343 266.924 257.598C273.879 253.567 278.768 249.535 281.852 245.332C285.098 240.897 286.66 236.391 286.499 231.956C286.243 227.288 284.421 222.842 281.328 219.336C277.985 215.431 274.066 212.06 269.706 209.337ZM246.523 236.028C246.17 236.562 245.193 237.681 242.491 239.233C240.462 240.443 238.259 241.334 235.96 241.874C234.324 242.235 232.655 242.421 230.98 242.429C230.537 242.429 230.093 242.429 229.65 242.429C227.59 242.3 225.557 241.9 223.602 241.239C221.449 240.501 219.359 239.591 217.353 238.518C210.02 234.776 202.887 230.655 195.984 226.17C194.415 225.231 192.966 224.103 191.67 222.814C191.003 222.197 190.513 221.414 190.249 220.546C190.249 220.425 190.138 220.032 190.682 219.195C191.035 218.671 192.013 217.552 194.714 215.99C196.741 214.779 198.945 213.891 201.245 213.359C202.808 213.011 204.403 212.832 206.003 212.825C206.497 212.825 207.011 212.825 207.444 212.875C209.504 213.027 211.537 213.44 213.492 214.105C215.668 214.841 217.793 215.72 219.853 216.736C227.18 220.546 234.387 224.699 241.292 229.043C242.889 230.015 244.379 231.154 245.737 232.44C246.378 232.989 246.844 233.715 247.078 234.526C247.057 234.677 247.138 235.091 246.543 236.028H246.523Z" fill="#E0E0E0"/>
<path d="M382.065 179.118L374.526 174.764L380.009 171.599C380.993 171.121 381.823 170.377 382.403 169.45C382.984 168.523 383.291 167.451 383.291 166.358C383.291 165.264 382.984 164.192 382.403 163.265C381.823 162.338 380.993 161.594 380.009 161.116L366.351 153.234C364.702 152.367 362.867 151.914 361.004 151.914C359.141 151.914 357.306 152.367 355.657 153.234L346.444 158.546L298.848 131.069C297.199 130.202 295.364 129.749 293.501 129.749C291.637 129.749 289.802 130.202 288.153 131.069L268.71 142.297C267.315 143.006 266.114 144.044 265.212 145.321C264.331 146.845 264.064 148.648 264.466 150.361L274.546 200.759C275.13 203.289 277.025 205.497 280.18 207.321L293.838 215.203C295.467 216.11 297.307 216.566 299.17 216.524C301.037 216.567 302.881 216.111 304.513 215.203L343.228 192.847L354.497 199.358C356.146 200.225 357.982 200.678 359.845 200.678C361.708 200.678 363.543 200.225 365.192 199.358L382.055 189.621C383.042 189.147 383.875 188.403 384.458 187.476C385.041 186.548 385.351 185.475 385.351 184.38C385.351 183.285 385.041 182.212 384.458 181.284C383.875 180.357 383.042 179.613 382.055 179.139L382.065 179.118ZM307.093 181.265L304.795 169.926L315.751 176.246L307.093 181.265Z" fill="#E0E0E0"/>
<path d="M273.05 286.497C273.317 286.372 273.607 286.308 273.902 286.308C274.196 286.308 274.487 286.372 274.753 286.497L278.09 288.432C278.187 288.471 278.272 288.537 278.333 288.623C278.394 288.709 278.428 288.811 278.432 288.916C278.426 289.022 278.391 289.124 278.331 289.211C278.27 289.298 278.187 289.367 278.09 289.41L263.172 298.028C262.907 298.16 262.616 298.229 262.32 298.229C262.024 298.229 261.733 298.16 261.468 298.028L241.128 286.285C241.031 286.241 240.947 286.172 240.885 286.085C240.823 285.999 240.785 285.897 240.775 285.791C240.786 285.685 240.824 285.584 240.886 285.498C240.948 285.411 241.031 285.342 241.128 285.297L255.804 276.83C256.066 276.697 256.356 276.628 256.65 276.628C256.945 276.628 257.235 276.697 257.497 276.83L260.833 278.755C260.932 278.798 261.017 278.866 261.079 278.953C261.141 279.04 261.178 279.143 261.186 279.249C261.177 279.356 261.14 279.458 261.078 279.545C261.015 279.632 260.931 279.7 260.833 279.743L251.137 285.337L254.544 287.303L263.545 282.102C263.809 281.97 264.101 281.901 264.397 281.901C264.692 281.901 264.984 281.97 265.248 282.102L268.585 284.027C268.682 284.07 268.765 284.138 268.826 284.226C268.886 284.313 268.921 284.415 268.927 284.521C268.92 284.627 268.885 284.728 268.824 284.815C268.764 284.902 268.681 284.971 268.585 285.015L259.573 290.206L263.101 292.222L273.05 286.497Z" fill="#0C393F"/>
<path d="M278.03 270.571C278.295 270.439 278.587 270.37 278.882 270.37C279.178 270.37 279.469 270.439 279.734 270.571L282.909 272.406C283.006 272.448 283.09 272.517 283.15 272.604C283.211 272.691 283.246 272.794 283.252 272.9C283.245 273.005 283.209 273.107 283.149 273.194C283.088 273.281 283.005 273.35 282.909 273.393L280.046 275.046C278.111 276.155 278.111 277.274 280.046 278.383L287.788 282.858C287.886 282.9 287.971 282.969 288.033 283.056C288.095 283.143 288.132 283.245 288.14 283.352C288.131 283.459 288.094 283.561 288.032 283.647C287.97 283.734 287.885 283.803 287.788 283.846L283.826 286.134C283.562 286.266 283.27 286.335 282.974 286.335C282.679 286.335 282.387 286.266 282.123 286.134L267.447 277.657C267.337 277.626 267.241 277.56 267.172 277.469C267.104 277.378 267.067 277.267 267.067 277.153C267.067 277.039 267.104 276.928 267.172 276.837C267.241 276.747 267.337 276.68 267.447 276.649L271.106 274.543C271.368 274.41 271.658 274.34 271.952 274.34C272.247 274.34 272.537 274.41 272.799 274.543L273.525 274.956C273.569 274.354 273.782 273.778 274.14 273.293C274.685 272.601 275.373 272.034 276.156 271.629L278.03 270.571Z" fill="#0C393F"/>
<path d="M293.269 261.771C293.529 261.631 293.821 261.562 294.116 261.57C294.414 261.562 294.709 261.631 294.972 261.771L298.148 263.606C298.245 263.648 298.328 263.717 298.389 263.804C298.449 263.891 298.484 263.994 298.49 264.1C298.483 264.205 298.448 264.307 298.387 264.394C298.327 264.481 298.244 264.55 298.148 264.594L295.285 266.247C293.35 267.355 293.35 268.471 295.285 269.593L303.026 274.058C303.125 274.099 303.209 274.167 303.27 274.255C303.331 274.342 303.365 274.446 303.369 274.552C303.362 274.658 303.326 274.76 303.266 274.847C303.205 274.934 303.123 275.003 303.026 275.046L299.065 277.334C298.8 277.466 298.509 277.535 298.213 277.535C297.917 277.535 297.626 277.466 297.361 277.334L282.685 268.857C282.589 268.816 282.506 268.749 282.445 268.664C282.385 268.579 282.349 268.478 282.343 268.373C282.349 268.267 282.384 268.165 282.444 268.078C282.505 267.991 282.588 267.922 282.685 267.88L286.344 265.773C286.604 265.632 286.896 265.563 287.191 265.571C287.486 265.564 287.778 265.633 288.038 265.773L288.763 266.186C288.807 265.585 289.02 265.008 289.378 264.523C289.924 263.831 290.611 263.264 291.394 262.86L293.269 261.771Z" fill="#0C393F"/>
<path d="M320.345 254.242C320.687 254.413 321.1 254.635 321.594 254.917C322.088 255.199 322.471 255.441 322.774 255.643C323.63 256.143 324.361 256.833 324.911 257.659C325.357 258.349 325.563 259.168 325.495 259.987C325.38 260.892 324.997 261.741 324.397 262.427C323.572 263.373 322.586 264.165 321.484 264.765C320.218 265.498 318.863 266.063 317.452 266.448C316.076 266.82 314.662 267.034 313.238 267.083C311.886 267.127 310.532 267.012 309.207 266.741C307.978 266.501 306.79 266.087 305.679 265.511C305.346 265.34 304.933 265.108 304.439 264.826C303.945 264.543 303.552 264.301 303.26 264.11C302.385 263.62 301.638 262.929 301.082 262.094C300.64 261.395 300.441 260.569 300.518 259.745C300.642 258.839 301.027 257.988 301.627 257.296C302.433 256.336 303.415 255.539 304.519 254.947C305.783 254.213 307.139 253.65 308.551 253.274C309.942 252.907 311.368 252.694 312.805 252.639C314.157 252.586 315.511 252.697 316.837 252.972C318.061 253.225 319.242 253.652 320.345 254.242ZM311.152 262.164C312.003 262.584 312.945 262.784 313.894 262.749C314.848 262.712 315.779 262.442 316.605 261.963C317.442 261.479 317.895 260.955 317.956 260.401C318.016 259.846 317.684 259.322 316.948 258.818C316.625 258.58 316.288 258.362 315.94 258.163C315.57 257.951 315.19 257.76 314.801 257.588C313.955 257.163 313.015 256.962 312.069 257.004C311.115 257.036 310.184 257.303 309.358 257.78C308.521 258.274 308.068 258.788 308.007 259.352C307.947 259.917 308.279 260.431 309.015 260.935C309.336 261.172 309.673 261.388 310.023 261.58C310.387 261.788 310.764 261.973 311.152 262.134V262.164Z" fill="#0C393F"/>
<path d="M328.528 241.41C328.792 241.278 329.084 241.209 329.379 241.209C329.675 241.209 329.967 241.278 330.231 241.41L333.416 243.245C333.513 243.289 333.596 243.358 333.656 243.445C333.716 243.531 333.752 243.633 333.759 243.739C333.753 243.845 333.718 243.947 333.657 244.034C333.597 244.121 333.513 244.19 333.416 244.233L330.543 245.886C328.622 246.995 328.622 248.11 330.543 249.232L338.295 253.698C338.391 253.741 338.474 253.81 338.534 253.897C338.595 253.984 338.63 254.086 338.637 254.191C338.631 254.297 338.596 254.4 338.536 254.487C338.475 254.574 338.392 254.643 338.295 254.685L334.323 256.973C334.064 257.113 333.772 257.183 333.477 257.175C333.182 257.184 332.889 257.114 332.63 256.973L317.914 248.507C317.816 248.463 317.732 248.395 317.67 248.308C317.607 248.221 317.57 248.119 317.561 248.013C317.569 247.906 317.606 247.803 317.668 247.716C317.73 247.629 317.815 247.561 317.914 247.519L321.563 245.412C321.827 245.28 322.119 245.211 322.414 245.211C322.71 245.211 323.002 245.28 323.266 245.412L323.992 245.825C324.031 245.223 324.245 244.645 324.607 244.162C325.149 243.468 325.837 242.9 326.623 242.499L328.528 241.41Z" fill="#0C393F"/>
<path d="M190.549 278.009L173.676 287.746C172.599 288.289 171.41 288.572 170.204 288.572C168.997 288.572 167.808 288.289 166.731 287.746L153.628 280.166L113.007 303.631C111.924 304.168 110.733 304.448 109.524 304.448C108.316 304.448 107.124 304.168 106.042 303.631L92.3939 295.739C90.1562 294.462 88.866 293.074 88.5233 291.576L78.4437 241.299C78.3921 241.003 78.3684 240.702 78.3731 240.402C78.3731 241.41 78.3731 253.918 78.3731 254.513C78.3784 254.773 78.402 255.033 78.4437 255.289L88.5233 305.566C88.866 307.058 90.1562 308.446 92.3939 309.729L106.042 317.612C107.122 318.155 108.315 318.438 109.524 318.438C110.734 318.438 111.926 318.155 113.007 317.612L153.618 294.176L166.721 301.756C167.798 302.3 168.987 302.582 170.194 302.582C171.4 302.582 172.589 302.3 173.666 301.756L190.539 292.019C190.939 291.847 191.284 291.568 191.534 291.212C191.785 290.856 191.933 290.438 191.961 290.004V275.993C191.933 276.426 191.786 276.843 191.537 277.198C191.288 277.554 190.947 277.834 190.549 278.009Z" fill="#1975B8"/>
<path d="M189.903 272.011V258.001C189.871 258.434 189.721 258.85 189.471 259.205C189.221 259.56 188.879 259.841 188.482 260.017L177.394 266.407L189.358 273.312C189.69 272.958 189.884 272.496 189.903 272.011Z" fill="#1975B8"/>
<path d="M113.076 270.036L121.473 274.904L133.619 267.899L109.911 254.201L113.066 270.036H113.076Z" fill="#1975B8"/>
<path d="M113.076 270.036L121.473 274.904L133.619 267.899L109.911 254.201L113.066 270.036H113.076Z" fill="#0C393F"/>
<path opacity="0.85" d="M189.903 272.011V258.001C189.871 258.434 189.721 258.85 189.471 259.205C189.221 259.56 188.879 259.841 188.482 260.017L177.394 266.407L189.358 273.312C189.69 272.958 189.884 272.496 189.903 272.011Z" fill="#0C393F"/>
<path opacity="0.85" d="M190.548 278.009L173.674 287.746C172.61 288.329 171.409 288.614 170.197 288.573V302.624C171.409 302.665 172.61 302.38 173.674 301.797L190.548 292.06C190.947 291.888 191.292 291.608 191.543 291.253C191.794 290.897 191.941 290.479 191.969 290.044V276.033C191.933 276.461 191.782 276.87 191.531 277.218C191.281 277.566 190.941 277.839 190.548 278.009Z" fill="#0C393F"/>
<path opacity="0.65" d="M88.5233 291.536L78.4437 241.258C78.3921 240.962 78.3684 240.662 78.3731 240.361C78.3731 241.369 78.3731 253.878 78.3731 254.473C78.3784 254.733 78.402 254.992 78.4437 255.249L88.5233 305.526C88.5915 305.82 88.6965 306.105 88.8358 306.373V292.362C88.6981 292.101 88.5931 291.823 88.5233 291.536Z" fill="#0C393F"/>
<path d="M109.529 304.417C108.316 304.45 107.114 304.168 106.041 303.601L92.3936 295.709C90.901 294.986 89.661 293.83 88.8354 292.392V306.403C89.661 307.841 90.901 308.997 92.3936 309.719L106.041 317.601C107.111 318.178 108.314 318.463 109.529 318.428C109.656 318.443 109.785 318.443 109.912 318.428V304.417C109.785 304.432 109.656 304.432 109.529 304.417Z" fill="#0C393F"/>
<path opacity="0.85" d="M113.006 303.631C112.055 304.145 110.992 304.416 109.911 304.418V318.428C110.993 318.428 112.058 318.154 113.006 317.632L153.617 294.177V280.166L113.006 303.631Z" fill="#0C393F"/>
<path d="M166.72 287.746L153.617 280.166V294.177L166.72 301.757C167.78 302.34 168.978 302.626 170.188 302.583V288.572C168.978 288.615 167.78 288.33 166.72 287.746Z" fill="#0C393F"/>
<path d="M173.675 287.746C172.596 288.289 171.405 288.572 170.197 288.572C168.99 288.572 167.799 288.289 166.72 287.746L153.616 280.166L113.006 303.631C111.925 304.169 110.735 304.448 109.528 304.448C108.321 304.448 107.131 304.169 106.051 303.631L92.3927 295.749C90.1684 294.459 88.8816 293.071 88.5322 291.586L78.4525 241.309C78.2509 240.535 78.3406 239.713 78.7045 239.001C79.2966 238.251 80.0469 237.642 80.9019 237.217L100.346 225.988C101.416 225.413 102.619 225.132 103.833 225.171C105.041 225.131 106.238 225.413 107.3 225.988L156.771 254.544L167.859 248.153C168.938 247.61 170.129 247.327 171.336 247.327C172.544 247.327 173.735 247.61 174.814 248.153L188.472 256.035C188.894 256.177 189.261 256.448 189.521 256.81C189.781 257.172 189.921 257.606 189.921 258.051C189.921 258.497 189.781 258.931 189.521 259.293C189.261 259.654 188.894 259.925 188.472 260.067L177.384 266.468L190.488 274.048C190.905 274.194 191.267 274.467 191.523 274.828C191.778 275.189 191.916 275.621 191.916 276.064C191.916 276.506 191.778 276.938 191.523 277.299C191.267 277.66 190.905 277.933 190.488 278.079L173.675 287.746ZM133.608 267.889L109.911 254.241L114.81 278.785L133.608 267.889Z" fill="#1975B8"/>
<path d="M281.244 215.808C281.184 219.184 279.853 222.631 277.293 226.139C274.551 229.909 269.958 233.652 263.514 237.368C257.442 240.936 250.891 243.617 244.06 245.331C237.797 246.889 231.363 247.651 224.909 247.599C218.839 247.546 212.802 246.709 206.947 245.109C201.418 243.611 196.06 241.541 190.961 238.93C187.272 236.995 183.421 234.898 179.369 232.53C175.317 230.161 171.557 227.933 168.04 225.696C164.025 223.189 160.422 220.078 157.355 216.473C154.782 213.605 153.26 209.948 153.041 206.101C153.112 208.318 152.95 217.652 153.041 220.112C153.26 223.958 154.782 227.616 157.355 230.483C160.422 234.089 164.025 237.199 168.04 239.706C171.554 241.944 175.331 244.222 179.369 246.54C183.401 248.869 187.272 251.006 190.961 252.951C196.062 255.554 201.42 257.621 206.947 259.12C212.802 260.72 218.839 261.556 224.909 261.609C231.363 261.661 237.797 260.899 244.06 259.341C250.891 257.628 257.442 254.947 263.514 251.379C269.965 247.656 274.558 243.913 277.293 240.15C280.045 236.39 281.325 232.701 281.224 229.113C281.153 227.026 281.284 218.962 281.244 215.808Z" fill="#1975B8"/>
<path d="M228.366 247.528C227.217 247.528 226.068 247.619 224.929 247.599C218.859 247.546 212.822 246.709 206.967 245.109C201.438 243.611 196.08 241.541 190.981 238.93C187.292 236.995 183.441 234.898 179.389 232.53C175.337 230.161 171.577 227.933 168.06 225.696C164.045 223.189 160.441 220.078 157.375 216.473C154.802 213.605 153.28 209.948 153.061 206.101C153.132 208.318 152.97 217.652 153.061 220.112C153.28 223.958 154.802 227.616 157.375 230.483C160.441 234.089 164.045 237.199 168.06 239.706C171.574 241.944 175.351 244.222 179.389 246.54C183.421 248.869 187.292 251.006 190.981 252.951C196.082 255.554 201.439 257.621 206.967 259.12C212.822 260.72 218.859 261.556 224.929 261.609C226.068 261.609 227.217 261.609 228.366 261.539V247.528Z" fill="#0C393F"/>
<path opacity="0.85" d="M281.244 215.807C281.183 219.184 279.853 222.631 277.292 226.139C274.551 229.909 269.958 233.651 263.514 237.367C257.442 240.936 250.891 243.617 244.06 245.33C238.92 246.591 233.665 247.327 228.376 247.528V261.538C233.664 261.333 238.919 260.597 244.06 259.341C250.891 257.628 257.442 254.946 263.514 251.378C269.965 247.655 274.558 243.913 277.292 240.149C280.044 236.39 281.324 232.701 281.223 229.112C281.153 227.026 281.284 218.962 281.244 215.807Z" fill="#0C393F"/>
<path d="M187.513 208.369C188.293 209.167 189.132 209.905 190.023 210.576C190.457 210.294 190.89 210.012 191.374 209.729C193.74 208.344 196.303 207.325 198.974 206.705C201.364 206.174 203.819 205.99 206.261 206.161C208.633 206.334 210.973 206.804 213.226 207.562C215.587 208.363 217.897 209.309 220.141 210.395C227.607 214.326 234.82 218.495 241.782 222.903C242.689 223.468 243.526 224.052 244.292 224.617C245.825 223.716 247.16 222.512 248.213 221.079C249.098 219.854 249.46 218.328 249.221 216.835C248.853 215.282 248.024 213.876 246.842 212.804C245.29 211.327 243.583 210.023 241.752 208.913C234.783 204.478 227.58 200.301 220.141 196.384C217.907 195.289 215.608 194.333 213.257 193.521C211.003 192.763 208.663 192.293 206.292 192.12C203.848 191.948 201.393 192.135 199.004 192.675C196.331 193.288 193.768 194.308 191.404 195.698C189.343 196.75 187.542 198.248 186.132 200.083C185.685 200.677 185.365 201.357 185.191 202.08C185.018 202.803 184.995 203.554 185.124 204.286C185.541 205.836 186.366 207.246 187.513 208.369Z" fill="#1975B8"/>
<path d="M187.513 208.369C188.293 209.167 189.132 209.905 190.023 210.576C190.457 210.294 190.89 210.012 191.374 209.729C193.74 208.344 196.303 207.325 198.974 206.705C201.364 206.174 203.819 205.99 206.261 206.161C208.633 206.334 210.973 206.804 213.226 207.562C215.587 208.363 217.897 209.309 220.141 210.395C227.607 214.326 234.82 218.495 241.782 222.903C242.689 223.468 243.526 224.052 244.292 224.617C245.825 223.716 247.16 222.512 248.213 221.079C249.098 219.854 249.46 218.328 249.221 216.835C248.853 215.282 248.024 213.876 246.842 212.804C245.29 211.327 243.583 210.023 241.752 208.913C234.783 204.478 227.58 200.301 220.141 196.384C217.907 195.289 215.608 194.333 213.257 193.521C211.003 192.763 208.663 192.293 206.292 192.12C203.848 191.948 201.393 192.135 199.004 192.675C196.331 193.288 193.768 194.308 191.404 195.698C189.343 196.75 187.542 198.248 186.132 200.083C185.685 200.677 185.365 201.357 185.191 202.08C185.018 202.803 184.995 203.554 185.124 204.286C185.541 205.836 186.366 207.246 187.513 208.369Z" fill="#0C393F"/>
<path d="M170.752 183.825C176.822 180.253 183.374 177.571 190.206 175.862C196.47 174.309 202.904 173.547 209.357 173.594C215.43 173.651 221.47 174.488 227.329 176.084C232.861 177.584 238.222 179.655 243.326 182.262C247.19 184.278 251.141 186.459 255.179 188.804C259.218 191.149 262.914 193.38 266.267 195.497C270.279 198.006 273.883 201.117 276.951 204.72C279.518 207.593 281.041 211.247 281.276 215.092C281.403 218.687 280.093 222.383 277.344 226.179C274.596 229.976 269.976 233.705 263.485 237.368C257.413 240.936 250.862 243.617 244.031 245.331C237.767 246.884 231.333 247.646 224.88 247.599C218.807 247.544 212.766 246.703 206.908 245.099C201.382 243.605 196.028 241.537 190.932 238.93C187.243 236.995 183.379 234.865 179.34 232.54C175.302 230.215 171.522 227.933 168.001 225.695C163.99 223.183 160.387 220.073 157.316 216.473C154.748 213.597 153.224 209.939 152.992 206.091C152.871 202.502 154.181 198.806 156.923 195.003C159.665 191.2 164.275 187.474 170.752 183.825ZM241.753 208.883C234.785 204.475 227.571 200.312 220.112 196.394C217.877 195.292 215.574 194.332 213.218 193.521C210.967 192.764 208.631 192.29 206.263 192.11C203.819 191.946 201.365 192.136 198.975 192.675C196.302 193.288 193.739 194.308 191.375 195.699C189.314 196.751 187.514 198.248 186.104 200.083C185.654 200.676 185.332 201.355 185.158 202.079C184.985 202.802 184.963 203.554 185.096 204.286C185.502 205.824 186.325 207.219 187.474 208.318C188.99 209.83 190.682 211.153 192.514 212.259C199.506 216.796 206.729 220.964 214.155 224.748C216.326 225.91 218.588 226.895 220.919 227.691C224.523 228.933 228.354 229.373 232.146 228.981C235.937 228.589 239.598 227.375 242.872 225.423C244.941 224.374 246.746 222.872 248.154 221.029C249.037 219.807 249.4 218.284 249.162 216.795C248.797 215.238 247.963 213.831 246.773 212.763C245.245 211.292 243.562 209.991 241.753 208.883Z" fill="#1975B8"/>
<path d="M378.715 169.37L361.842 179.107C360.765 179.651 359.576 179.934 358.37 179.934C357.164 179.934 355.974 179.651 354.897 179.107L341.794 171.517L301.213 194.953C300.134 195.496 298.943 195.779 297.736 195.779C296.528 195.779 295.337 195.496 294.258 194.953L280.6 187.07C278.363 185.79 277.082 184.399 276.73 182.907L266.65 132.63C266.599 132.334 266.575 132.034 266.579 131.733C266.579 132.741 266.579 145.25 266.579 145.845C266.585 146.105 266.609 146.364 266.65 146.621L276.73 196.888C277.082 198.39 278.363 199.771 280.6 201.061L294.258 208.943C295.337 209.486 296.528 209.769 297.736 209.769C298.943 209.769 300.134 209.486 301.213 208.943L341.794 185.508L354.897 193.098C355.974 193.641 357.164 193.924 358.37 193.924C359.576 193.924 360.765 193.641 361.842 193.098L378.715 183.361C379.115 183.189 379.46 182.909 379.711 182.554C379.961 182.198 380.109 181.78 380.137 181.345V167.355C380.108 167.789 379.96 168.207 379.709 168.562C379.458 168.918 379.115 169.197 378.715 169.37Z" fill="#1975B8"/>
<path d="M378.081 163.363V149.352C378.049 149.786 377.899 150.202 377.649 150.557C377.399 150.912 377.057 151.192 376.659 151.368L365.572 157.759L377.536 164.653C377.873 164.306 378.067 163.846 378.081 163.363Z" fill="#1975B8"/>
<path d="M301.243 161.398L309.639 166.266L321.785 159.261L298.078 145.562L301.233 161.398H301.243Z" fill="#1975B8"/>
<path d="M301.243 161.398L309.639 166.266L321.785 159.261L298.078 145.562L301.233 161.398H301.243Z" fill="#0C393F"/>
<path opacity="0.85" d="M378.081 163.363V149.352C378.049 149.786 377.899 150.202 377.649 150.557C377.399 150.912 377.057 151.192 376.659 151.368L365.572 157.759L377.536 164.653C377.873 164.306 378.067 163.846 378.081 163.363Z" fill="#0C393F"/>
<path opacity="0.85" d="M378.714 169.37L361.841 179.107C360.777 179.69 359.576 179.976 358.363 179.934V193.945C359.576 193.986 360.777 193.701 361.841 193.118L378.714 183.381C379.114 183.209 379.458 182.93 379.709 182.574C379.96 182.218 380.108 181.8 380.135 181.365V167.354C380.107 167.789 379.959 168.206 379.708 168.562C379.457 168.918 379.113 169.197 378.714 169.37Z" fill="#0C393F"/>
<path opacity="0.65" d="M276.69 182.907L266.61 132.63C266.559 132.334 266.536 132.034 266.54 131.733C266.54 132.741 266.54 145.25 266.54 145.845C266.546 146.105 266.569 146.364 266.61 146.621L276.69 196.888C276.756 197.188 276.864 197.476 277.013 197.745V183.734C276.868 183.475 276.759 183.196 276.69 182.907Z" fill="#0C393F"/>
<path d="M297.694 195.779C296.482 195.815 295.283 195.529 294.217 194.953L280.559 187.07C279.067 186.351 277.829 185.194 277.011 183.754V197.795C277.829 199.235 279.067 200.392 280.559 201.111L294.217 208.994C295.283 209.57 296.482 209.856 297.694 209.82C297.821 209.835 297.95 209.835 298.077 209.82V195.779C297.95 195.794 297.821 195.794 297.694 195.779Z" fill="#0C393F"/>
<path opacity="0.85" d="M301.172 194.952C300.225 195.476 299.16 195.75 298.078 195.749V209.759C299.16 209.76 300.225 209.486 301.172 208.963L341.753 185.528V171.517L301.172 194.952Z" fill="#0C393F"/>
<path d="M354.895 179.107L341.792 171.517V185.528L354.895 193.118C355.955 193.702 357.153 193.988 358.363 193.945V179.934C357.153 179.977 355.955 179.691 354.895 179.107Z" fill="#0C393F"/>
<path d="M361.852 179.108C360.784 179.687 359.579 179.969 358.365 179.924C357.154 179.963 355.954 179.681 354.887 179.108L341.784 171.528L301.203 194.953C300.122 195.49 298.932 195.769 297.725 195.769C296.519 195.769 295.328 195.49 294.248 194.953L280.59 187.07C278.366 185.78 277.079 184.393 276.73 182.908L266.65 132.63C266.453 131.856 266.543 131.036 266.902 130.322C267.494 129.573 268.244 128.964 269.099 128.538L288.543 117.309C289.623 116.766 290.816 116.483 292.025 116.483C293.235 116.483 294.427 116.766 295.508 117.309L344.969 145.865L356.056 139.464C357.137 138.927 358.327 138.648 359.534 138.648C360.74 138.648 361.931 138.927 363.011 139.464L376.659 147.397C377.081 147.539 377.448 147.81 377.708 148.172C377.968 148.533 378.108 148.967 378.108 149.413C378.108 149.858 377.968 150.293 377.708 150.654C377.448 151.016 377.081 151.287 376.659 151.429L365.571 157.829L378.675 165.409C379.092 165.556 379.454 165.829 379.71 166.19C379.966 166.551 380.103 166.983 380.103 167.425C380.103 167.868 379.966 168.299 379.71 168.661C379.454 169.022 379.092 169.294 378.675 169.441L361.852 179.108ZM321.786 159.251L298.078 145.573L302.977 170.106L321.786 159.251Z" fill="#1975B8"/>
<path d="M227.429 109.558C228.306 105.466 211.604 115.112 210.727 119.204L216.089 133.689C216.284 134.108 216.6 134.459 216.997 134.697C218.176 135.422 222.53 137.882 222.903 138.114C223.205 138.299 223.545 138.412 223.898 138.447C224.25 138.481 224.606 138.435 224.938 138.311C225.27 138.188 225.57 137.991 225.814 137.735C226.059 137.479 226.242 137.171 226.35 136.834L233.326 112.915C233.769 110.949 227.429 109.558 227.429 109.558Z" fill="#1975B8"/>
<path opacity="0.25" d="M227.429 109.558C228.306 105.466 211.604 115.112 210.727 119.204L216.089 133.689C216.284 134.108 216.6 134.459 216.997 134.697C218.176 135.422 222.53 137.882 222.903 138.114C223.205 138.299 223.545 138.412 223.898 138.447C224.25 138.481 224.606 138.435 224.938 138.311C225.27 138.188 225.57 137.991 225.814 137.735C226.059 137.479 226.242 137.171 226.35 136.834L233.326 112.915C233.769 110.949 227.429 109.558 227.429 109.558Z" fill="black"/>
<path d="M279.673 1.00074L140.302 81.406C139.648 81.8302 139.104 82.4028 138.713 83.0771C138.323 83.7515 138.097 84.5085 138.054 85.2867V161.892C138.097 162.67 138.323 163.427 138.713 164.101C139.104 164.776 139.648 165.348 140.302 165.773L141.703 166.569C142.398 166.922 143.166 167.106 143.946 167.106C144.725 167.106 145.494 166.922 146.188 166.569L285.57 86.0729C286.222 85.646 286.765 85.0712 287.154 84.3951C287.543 83.7191 287.767 82.9609 287.807 82.1821V5.66761C287.767 4.89019 287.543 4.13341 287.154 3.45901C286.765 2.7846 286.222 2.21167 285.57 1.78695L284.169 0.990659C283.471 0.639694 282.701 0.457734 281.92 0.459485C281.139 0.461236 280.369 0.646651 279.673 1.00074Z" fill="#1975B8"/>
<path opacity="0.25" d="M279.673 1.00074L140.302 81.406C139.648 81.8302 139.104 82.4028 138.713 83.0771C138.323 83.7515 138.097 84.5085 138.054 85.2867V161.892C138.097 162.67 138.323 163.427 138.713 164.101C139.104 164.776 139.648 165.348 140.302 165.773L141.703 166.569C142.398 166.922 143.166 167.106 143.946 167.106C144.725 167.106 145.494 166.922 146.188 166.569L285.57 86.0729C286.222 85.646 286.765 85.0712 287.154 84.3951C287.543 83.7191 287.767 82.9609 287.807 82.1821V5.66761C287.767 4.89019 287.543 4.13341 287.154 3.45901C286.765 2.7846 286.222 2.21167 285.57 1.78695L284.169 0.990659C283.471 0.639694 282.701 0.457734 281.92 0.459485C281.139 0.461236 280.369 0.646651 279.673 1.00074Z" fill="black"/>
<path d="M287.817 5.66774V6.54467C287.814 6.18139 287.717 5.8251 287.533 5.51141C287.35 5.19771 287.088 4.93759 286.772 4.75702C286.457 4.57644 286.1 4.48174 285.737 4.48237C285.374 4.48299 285.017 4.57892 284.702 4.76057L147.035 84.299C146.092 84.8298 145.312 85.6067 144.777 86.5468V86.6173L138.729 83.1197C139.111 82.4225 139.666 81.8357 140.342 81.4162L279.713 1.00087C280.41 0.654574 281.177 0.474365 281.955 0.474365C282.734 0.474365 283.501 0.654574 284.198 1.00087L285.599 1.79716C286.245 2.2243 286.783 2.7969 287.168 3.46905C287.553 4.1412 287.775 4.89421 287.817 5.66774Z" fill="#1975B8"/>
<path opacity="0.45" d="M287.817 5.66774V6.54467C287.814 6.18139 287.717 5.8251 287.533 5.51141C287.35 5.19771 287.088 4.93759 286.772 4.75702C286.457 4.57644 286.1 4.48174 285.737 4.48237C285.374 4.48299 285.017 4.57892 284.702 4.76057L147.035 84.299C146.092 84.8298 145.312 85.6067 144.777 86.5468V86.6173L138.729 83.1197C139.111 82.4225 139.666 81.8357 140.342 81.4162L279.713 1.00087C280.41 0.654574 281.177 0.474365 281.955 0.474365C282.734 0.474365 283.501 0.654574 284.198 1.00087L285.599 1.79716C286.245 2.2243 286.783 2.7969 287.168 3.46905C287.553 4.1412 287.775 4.89421 287.817 5.66774Z" fill="white"/>
<path d="M285.742 5.2744C285.522 5.27511 285.307 5.33425 285.117 5.44576L147.439 84.9942C146.625 85.4643 145.949 86.1401 145.478 86.9538C145.008 87.7676 144.759 88.6908 144.758 89.6309V164.301C144.758 164.724 144.849 165.712 145.665 165.712C146.024 165.696 146.372 165.585 146.673 165.389L218.108 124.144L222.573 136.531C222.763 136.963 223.08 137.326 223.482 137.573C223.883 137.82 224.351 137.94 224.821 137.916C225.292 137.892 225.745 137.725 226.119 137.439C226.493 137.152 226.772 136.758 226.917 136.31L232.965 115.566L284.371 85.8913C286.236 84.8229 287.062 83.7343 287.062 82.3735V6.54444C287.064 6.37292 287.031 6.20288 286.964 6.04475C286.898 5.88662 286.8 5.74373 286.676 5.62482C286.552 5.50592 286.406 5.41351 286.245 5.35325C286.085 5.293 285.913 5.26616 285.742 5.2744Z" fill="white"/>
<path d="M145.665 166.548C144.657 166.548 143.962 165.682 143.962 164.341V89.6307C143.964 88.551 144.25 87.4908 144.789 86.5554C145.328 85.62 146.103 84.842 147.036 84.2986L284.714 4.77027C285.019 4.58908 285.367 4.49172 285.722 4.48804C286.252 4.50083 286.758 4.71733 287.133 5.09265C287.508 5.46797 287.725 5.97333 287.738 6.50396V82.3331C287.738 84.5103 285.964 85.7803 284.643 86.5464L233.63 116.15L227.673 136.582C227.486 137.193 227.115 137.732 226.612 138.126C226.108 138.52 225.496 138.751 224.857 138.786C224.219 138.821 223.585 138.659 223.041 138.323C222.498 137.986 222.07 137.491 221.817 136.904L217.654 125.373L147.046 166.085C146.636 166.36 146.159 166.52 145.665 166.548ZM285.772 6.13101C285.691 6.13184 285.611 6.15262 285.54 6.1915L147.873 85.7198C147.179 86.1205 146.602 86.6963 146.201 87.3897C145.799 88.0831 145.587 88.8698 145.584 89.671V164.341C145.566 164.558 145.612 164.775 145.716 164.966C145.914 164.921 146.104 164.846 146.28 164.744L218.541 123.014L223.309 136.31C223.434 136.584 223.64 136.814 223.9 136.968C224.159 137.123 224.459 137.196 224.76 137.176C225.071 137.162 225.37 137.053 225.617 136.864C225.864 136.675 226.046 136.414 226.141 136.118L232.269 115.082L232.542 114.921L283.948 85.2461C285.964 84.0869 286.246 83.1697 286.246 82.4238V6.54428C286.245 6.4807 286.23 6.41803 286.204 6.36017C286.178 6.30232 286.14 6.2505 286.092 6.20796C286.045 6.16542 285.99 6.13305 285.929 6.11288C285.869 6.09271 285.805 6.08516 285.742 6.0907L285.772 6.13101Z" fill="#1975B8"/>
<path d="M160.342 109.095C160.431 106.664 160.768 104.249 161.35 101.888C161.923 99.521 162.758 97.2255 163.84 95.0437C164.9 92.9215 166.217 90.9377 167.761 89.137C169.274 87.3743 171.073 85.8784 173.083 84.7121C174.675 83.6912 176.506 83.104 178.395 83.0086C179.829 82.9667 181.229 83.4547 182.326 84.3794C183.505 85.4453 184.366 86.8162 184.816 88.3407C185.442 90.2975 185.781 92.3345 185.824 94.3885C185.884 96.1625 185.914 98.0272 185.914 100.003C185.914 101.978 185.914 103.823 185.824 105.577C185.734 108.007 185.396 110.422 184.816 112.784C184.245 115.158 183.41 117.46 182.326 119.648C181.279 121.786 179.957 123.778 178.395 125.575C176.88 127.319 175.085 128.797 173.083 129.949C171.491 130.986 169.657 131.591 167.761 131.703C166.327 131.749 164.929 131.256 163.84 130.322C162.662 129.227 161.802 127.834 161.35 126.291C160.726 124.333 160.387 122.297 160.342 120.243C160.292 118.559 160.262 116.735 160.262 114.77C160.262 112.804 160.292 110.909 160.342 109.095ZM178.254 109.619C178.254 108.853 178.314 107.996 178.344 107.059C178.375 106.121 178.344 105.174 178.344 104.206C178.344 103.238 178.344 102.321 178.344 101.434C178.344 100.547 178.284 99.761 178.254 99.0655C178.223 98.171 178.081 97.2838 177.83 96.4246C177.646 95.771 177.299 95.1747 176.822 94.6909C176.398 94.2874 175.836 94.0604 175.25 94.0559C174.463 94.0919 173.701 94.3391 173.043 94.7715C172.21 95.2521 171.467 95.8727 170.845 96.606C170.216 97.3498 169.687 98.1734 169.273 99.0554C168.833 99.9664 168.495 100.923 168.265 101.908C168.032 102.942 167.887 103.994 167.831 105.053C167.781 105.789 167.741 106.615 167.731 107.522C167.721 108.429 167.731 109.367 167.731 110.334C167.731 111.302 167.731 112.24 167.731 113.147C167.731 114.054 167.731 114.88 167.831 115.606C167.79 117.189 168.288 118.738 169.243 120.001C170.069 120.908 171.326 120.874 173.012 119.9C174.695 118.934 176.015 117.443 176.772 115.657C177.626 113.743 178.128 111.691 178.254 109.599V109.619Z" fill="#0C393F"/>
<path d="M211.398 88.4617C211.398 89.0665 211.398 89.8728 211.398 90.8506C211.398 91.8283 211.398 92.6548 211.398 93.2999C211.334 95.3835 211.033 97.4531 210.501 99.4687C209.968 101.516 209.214 103.5 208.253 105.385C207.324 107.224 206.166 108.938 204.806 110.486C203.517 111.965 201.995 113.225 200.3 114.215C198.943 115.079 197.39 115.585 195.785 115.687C194.537 115.748 193.311 115.35 192.337 114.568C191.305 113.685 190.532 112.539 190.1 111.252C189.519 109.599 189.212 107.863 189.193 106.111C189.193 105.496 189.193 104.7 189.193 103.712C189.193 102.724 189.193 101.918 189.193 101.273C189.233 99.1967 189.521 97.1327 190.049 95.1243C190.586 93.0718 191.347 91.0843 192.317 89.1975C193.266 87.3531 194.43 85.6275 195.785 84.0569C197.069 82.5569 198.595 81.2827 200.3 80.2871C201.653 79.4292 203.206 78.9361 204.806 78.8558C206.058 78.8259 207.283 79.2281 208.273 79.9948C209.317 80.8734 210.095 82.0252 210.521 83.3211C211.081 84.978 211.377 86.7128 211.398 88.4617ZM196.541 101.565C196.621 103.117 196.994 104.146 197.659 104.66C198.325 105.174 199.212 105.113 200.3 104.488C201.44 103.809 202.354 102.81 202.931 101.616C203.618 100.253 204 98.7564 204.05 97.231C204.1 96.5758 204.131 95.8501 204.131 95.0538C204.131 94.2575 204.131 93.562 204.05 92.9572C203.969 91.4184 203.596 90.3903 202.931 89.8728C202.266 89.3588 201.389 89.4092 200.3 90.0442C199.163 90.7248 198.246 91.7186 197.659 92.9068C196.974 94.2739 196.592 95.7731 196.541 97.3015C196.49 97.9567 196.46 98.6824 196.46 99.4787C196.46 100.275 196.49 100.96 196.541 101.555V101.565Z" fill="#0C393F"/>
<path d="M228.047 98.1987C227.406 98.5947 226.7 98.8745 225.961 99.0252C225.449 99.1337 224.92 99.1337 224.409 99.0252C224.003 98.9115 223.627 98.7083 223.31 98.4305C223.033 98.1961 222.786 97.9287 222.574 97.6342V111.02C222.567 111.498 222.457 111.969 222.252 112.401C222.097 112.79 221.826 113.121 221.476 113.348L216.335 116.372C216.22 116.457 216.078 116.498 215.936 116.487C215.793 116.476 215.659 116.413 215.559 116.312C215.437 116.176 215.345 116.016 215.288 115.842C215.23 115.669 215.209 115.486 215.226 115.304V73.9874C215.232 73.5079 215.346 73.036 215.559 72.6065C215.713 72.2178 215.984 71.8867 216.335 71.659L221.274 68.8064C221.389 68.7215 221.531 68.6809 221.673 68.692C221.816 68.7031 221.95 68.7652 222.05 68.8669C222.168 69.0049 222.258 69.1651 222.313 69.3382C222.369 69.5114 222.389 69.6938 222.373 69.8749V71.3263C222.615 70.7619 222.887 70.1672 223.169 69.5422C223.461 68.8979 223.816 68.2835 224.227 67.7077C224.687 67.0681 225.206 66.474 225.78 65.9337C226.467 65.2942 227.228 64.7393 228.047 64.2807C229.099 63.6339 230.286 63.2373 231.515 63.1215C232.034 63.0858 232.555 63.1569 233.045 63.3302C233.536 63.5036 233.986 63.7756 234.367 64.1295C235.319 65.0508 236.014 66.2042 236.383 67.4759C236.946 69.4011 237.227 71.3972 237.22 73.4027C237.22 74.0075 237.22 74.8542 237.22 75.9226C237.22 76.9911 237.22 77.8479 237.22 78.493C237.185 80.8109 236.905 83.1186 236.383 85.3774C235.916 87.3227 235.24 89.2119 234.367 91.0119C233.62 92.5778 232.66 94.033 231.515 95.336C230.515 96.4653 229.345 97.4312 228.047 98.1987ZM229.882 81.9301C229.963 80.7589 229.963 79.5835 229.882 78.4123C229.878 77.2516 229.554 76.1144 228.945 75.1264C228.4 74.3502 227.483 74.3301 226.203 75.0659C225.611 75.4145 225.088 75.8689 224.661 76.4065C224.225 76.9538 223.86 77.5531 223.572 78.1906C223.29 78.8412 223.067 79.5159 222.907 80.2065C222.74 80.868 222.628 81.5423 222.574 82.2224C222.524 82.8776 222.494 83.6336 222.494 84.4702C222.494 85.3068 222.494 86.0224 222.574 86.6171C222.617 87.1732 222.728 87.7217 222.907 88.2501C223.044 88.6975 223.27 89.1125 223.572 89.4697C223.854 89.7792 224.243 89.9702 224.661 90.0039C225.209 90.0127 225.747 89.8545 226.203 89.5503C227.466 88.8334 228.436 87.6952 228.945 86.3349C229.491 84.9263 229.807 83.4391 229.882 81.9301Z" fill="#0C393F"/>
<path d="M253.096 73.3021C253.096 72.8384 252.995 72.5461 252.794 72.405C252.47 72.279 252.11 72.279 251.786 72.405C251.126 72.5715 250.476 72.7768 249.84 73.0198C249.044 73.3122 248.046 73.6448 246.817 74.0278C244.747 74.6326 243.154 74.3772 242.039 73.2617C240.92 72.153 240.366 70.1673 240.366 67.3248C240.374 65.8431 240.608 64.3713 241.061 62.9604C241.538 61.4494 242.187 59.9984 242.996 58.6362C243.847 57.2215 244.862 55.9121 246.02 54.7354C247.184 53.5541 248.503 52.5368 249.941 51.7115C251.137 50.9721 252.465 50.4723 253.852 50.2399C254.889 50.0543 255.956 50.1305 256.957 50.4616C257.79 50.769 258.499 51.343 258.973 52.0945C259.488 52.9003 259.777 53.8299 259.809 54.7858C259.832 55.2615 259.728 55.7348 259.507 56.1566C259.349 56.5653 259.072 56.9168 258.711 57.1646L253.852 59.9667C253.55 60.1381 253.318 60.1784 253.137 60.0675C252.936 59.9456 252.727 59.8378 252.512 59.745C252.208 59.6235 251.88 59.5752 251.554 59.6038C250.962 59.6934 250.397 59.9138 249.901 60.2489C249.3 60.5847 248.767 61.029 248.329 61.5593C247.92 62.0367 247.695 62.6443 247.694 63.2728C247.654 63.6216 247.724 63.974 247.895 64.2808C248.036 64.4488 248.308 64.4891 248.712 64.4018C249.291 64.2608 249.863 64.0892 250.425 63.8877C251.161 63.6256 252.129 63.3031 253.328 62.8797C255.798 62.0834 257.602 62.3253 258.731 63.6256C259.971 65.2616 260.573 67.2932 260.424 69.3408C260.414 70.8289 260.179 72.3071 259.729 73.7254C259.246 75.2858 258.568 76.7793 257.713 78.1705C256.787 79.6664 255.691 81.0498 254.447 82.2931C253.144 83.5906 251.676 84.7122 250.082 85.6295C248.768 86.4486 247.306 87.0033 245.778 87.2624C244.723 87.4366 243.641 87.3109 242.654 86.8995C241.835 86.5306 241.157 85.9087 240.718 85.1255C240.258 84.3185 239.999 83.4128 239.962 82.4846C239.938 82.0088 240.043 81.5353 240.265 81.1138C240.422 80.7051 240.7 80.3536 241.061 80.1058L246.101 77.1827C246.403 77.0114 246.615 77.0013 246.756 77.1827C246.911 77.3528 247.087 77.5019 247.28 77.6262C247.563 77.7923 247.891 77.8662 248.218 77.8379C248.88 77.7466 249.512 77.5015 250.062 77.1222C250.857 76.6664 251.572 76.0843 252.179 75.3986C252.748 74.8469 253.077 74.0941 253.096 73.3021Z" fill="#0C393F"/>
<path d="M271.532 57.2755C271.525 57.7536 271.415 58.2246 271.21 58.6564C271.056 59.0451 270.784 59.3762 270.434 59.6039L265.293 62.5774C265.178 62.6623 265.036 62.7029 264.894 62.6918C264.751 62.6807 264.617 62.6186 264.517 62.5169C264.397 62.3802 264.306 62.2201 264.25 62.0466C264.195 61.8732 264.176 61.6901 264.194 61.5089V34.435C264.195 33.9562 264.306 33.4839 264.517 33.0541C264.671 32.6655 264.942 32.3343 265.293 32.1066L270.434 29.0827C270.549 28.9979 270.69 28.9572 270.833 28.9684C270.976 28.9795 271.109 29.0415 271.21 29.1432C271.329 29.2809 271.418 29.4411 271.474 29.6143C271.529 29.7875 271.549 29.9701 271.532 30.1512V57.2755ZM271.532 70.7822C271.527 71.2605 271.417 71.7318 271.21 72.1631C271.056 72.5518 270.784 72.8829 270.434 73.1106L265.293 76.0841C265.178 76.169 265.036 76.2096 264.894 76.1985C264.751 76.1874 264.617 76.1253 264.517 76.0236C264.396 75.8873 264.305 75.7272 264.249 75.5536C264.194 75.3801 264.175 75.1969 264.194 75.0157V68.6655C264.195 68.1866 264.306 67.7143 264.517 67.2846C264.671 66.8959 264.942 66.5648 265.293 66.3371L270.434 63.3132C270.549 63.2283 270.69 63.1877 270.833 63.1988C270.976 63.2099 271.109 63.272 271.21 63.3737C271.328 63.5116 271.418 63.6719 271.473 63.845C271.528 64.0181 271.549 64.2006 271.532 64.3816V70.7822Z" fill="#0C393F"/>
</svg>
