<svg width="24" height="24" viewBox="0 0 24 24" fill="none" xmlns="http://www.w3.org/2000/svg">
<path d="M8.96 7.81341L11.25 5.51341V15.1034C11.25 15.3686 11.3554 15.623 11.5429 15.8105C11.7304 15.9981 11.9848 16.1034 12.25 16.1034C12.5152 16.1034 12.7696 15.9981 12.9571 15.8105C13.1446 15.623 13.25 15.3686 13.25 15.1034V5.51341L15.54 7.81341C15.633 7.90714 15.7436 7.98153 15.8654 8.0323C15.9873 8.08307 16.118 8.10921 16.25 8.10921C16.382 8.10921 16.5127 8.08307 16.6346 8.0323C16.7564 7.98153 16.867 7.90714 16.96 7.81341C17.0537 7.72045 17.1281 7.60985 17.1789 7.48799C17.2297 7.36613 17.2558 7.23542 17.2558 7.10341C17.2558 6.9714 17.2297 6.84069 17.1789 6.71884C17.1281 6.59698 17.0537 6.48638 16.96 6.39341L12.96 2.39341C12.8649 2.30237 12.7528 2.23101 12.63 2.18341C12.3865 2.08339 12.1135 2.08339 11.87 2.18341C11.7472 2.23101 11.6351 2.30237 11.54 2.39341L7.54 6.39341C7.44676 6.48665 7.3728 6.59734 7.32234 6.71916C7.27188 6.84098 7.24591 6.97155 7.24591 7.10341C7.24591 7.23527 7.27188 7.36584 7.32234 7.48766C7.3728 7.60948 7.44676 7.72017 7.54 7.81341C7.63324 7.90665 7.74393 7.98061 7.86575 8.03107C7.98757 8.08153 8.11814 8.1075 8.25 8.1075C8.38186 8.1075 8.51243 8.08153 8.63425 8.03107C8.75607 7.98061 8.86676 7.90665 8.96 7.81341ZM21.25 14.1034C20.9848 14.1034 20.7304 14.2088 20.5429 14.3963C20.3554 14.5838 20.25 14.8382 20.25 15.1034V19.1034C20.25 19.3686 20.1446 19.623 19.9571 19.8105C19.7696 19.9981 19.5152 20.1034 19.25 20.1034H5.25C4.98478 20.1034 4.73043 19.9981 4.54289 19.8105C4.35536 19.623 4.25 19.3686 4.25 19.1034V15.1034C4.25 14.8382 4.14464 14.5838 3.95711 14.3963C3.76957 14.2088 3.51522 14.1034 3.25 14.1034C2.98478 14.1034 2.73043 14.2088 2.54289 14.3963C2.35536 14.5838 2.25 14.8382 2.25 15.1034V19.1034C2.25 19.8991 2.56607 20.6621 3.12868 21.2247C3.69129 21.7873 4.45435 22.1034 5.25 22.1034H19.25C20.0456 22.1034 20.8087 21.7873 21.3713 21.2247C21.9339 20.6621 22.25 19.8991 22.25 19.1034V15.1034C22.25 14.8382 22.1446 14.5838 21.9571 14.3963C21.7696 14.2088 21.5152 14.1034 21.25 14.1034Z" fill="white"/>
</svg>
