<svg width="25" height="24" viewBox="0 0 25 24" fill="none" xmlns="http://www.w3.org/2000/svg">
<path fill-rule="evenodd" clip-rule="evenodd" d="M12.886 5.04407C13.5545 4.37556 14.4612 4 15.4066 4C16.352 4 17.2587 4.37556 17.9272 5.04407C18.5958 5.71258 18.9713 6.61927 18.9713 7.56469C18.9713 8.5101 18.5958 9.4168 17.9272 10.0853L11.7615 16.2511C11.5711 16.4415 11.3451 16.5926 11.0963 16.6957C10.8476 16.7988 10.581 16.8519 10.3117 16.8519C9.76788 16.852 9.24631 16.6361 8.8617 16.2516C8.4771 15.8672 8.26098 15.3457 8.26088 14.8019C8.26078 14.2581 8.47671 13.7365 8.86117 13.3519L14.8427 7.36923L15.601 8.1275L9.61837 14.1091C9.52744 14.2 9.45532 14.308 9.40611 14.4268C9.35689 14.5456 9.33157 14.6729 9.33157 14.8015C9.33157 14.9301 9.35689 15.0574 9.40611 15.1762C9.45532 15.295 9.52744 15.403 9.61837 15.4939C9.7093 15.5848 9.81725 15.6569 9.93605 15.7062C10.0549 15.7554 10.1822 15.7807 10.3108 15.7807C10.4394 15.7807 10.5667 15.7554 10.6855 15.7062C10.8043 15.6569 10.9123 15.5848 11.0032 15.4939L17.169 9.3281C17.4005 9.09653 17.5842 8.82161 17.7096 8.51904C17.8349 8.21647 17.8994 7.89218 17.8994 7.56469C17.8994 7.23719 17.8349 6.9129 17.7096 6.61034C17.5842 6.30777 17.4005 6.03285 17.169 5.80128C16.9374 5.5697 16.6625 5.38601 16.3599 5.26068C16.0573 5.13535 15.7331 5.07085 15.4056 5.07085C15.0781 5.07085 14.7538 5.13535 14.4512 5.26068C14.1486 5.38601 13.8737 5.5697 13.6421 5.80128L7.29321 12.1513C6.55671 12.9061 6.14734 13.9208 6.15384 14.9755C6.16033 16.0301 6.58216 17.0397 7.32791 17.7854C8.07365 18.5312 9.08323 18.953 10.1379 18.9595C11.1925 18.966 12.2072 18.5566 12.9621 17.8201L19.1278 11.6533L19.8861 12.4115L13.7193 18.5773C12.7609 19.5012 11.4781 20.012 10.147 19.9998C8.81583 19.9875 7.54268 19.4533 6.60144 18.5119C5.66021 17.5705 5.12612 16.2973 5.11408 14.9661C5.10205 13.635 5.61303 12.3523 6.53708 11.3941L12.886 5.043V5.04407Z" fill="#1C1C1E"/>
</svg>
