<svg width="24" height="24" viewBox="0 0 24 24" fill="none" xmlns="http://www.w3.org/2000/svg">
<path d="M19.5854 17.633C20.1382 18.1864 20.1382 19.0471 19.5854 19.6004C19.309 19.877 18.9712 20 18.6027 20C18.2342 20 17.8964 19.877 17.62 19.6004L12 13.975L6.38004 19.6004C6.10365 19.877 5.76584 20 5.39731 20C5.02879 20 4.69098 19.877 4.41459 19.6004C3.8618 19.0471 3.8618 18.1864 4.41459 17.633L10.0345 12.0077L4.41459 6.38233C3.8618 5.82901 3.8618 4.9683 4.41459 4.41499C4.96737 3.86167 5.82726 3.86167 6.38004 4.41499L12 10.0403L17.62 4.41499C18.1727 3.86167 19.0326 3.86167 19.5854 4.41499C20.1382 4.9683 20.1382 5.82901 19.5854 6.38233L13.9655 12.0077L19.5854 17.633Z" fill="#CDCDCD"/>
</svg>
