<svg width="42" height="41" viewBox="0 0 42 41" fill="none" xmlns="http://www.w3.org/2000/svg">
<path d="M32.779 5.125H8.99447C7.11792 5.125 5.59668 6.65469 5.59668 8.54167V32.4583C5.59668 34.3453 7.11792 35.875 8.99447 35.875H32.779C34.6555 35.875 36.1768 34.3453 36.1768 32.4583V8.54167C36.1768 6.65469 34.6555 5.125 32.779 5.125Z" stroke="#8C8C8C" stroke-width="2" stroke-linecap="round" stroke-linejoin="round"/>
<path d="M14.9406 17.0835C16.348 17.0835 17.489 15.9362 17.489 14.521C17.489 13.1058 16.348 11.9585 14.9406 11.9585C13.5332 11.9585 12.3923 13.1058 12.3923 14.521C12.3923 15.9362 13.5332 17.0835 14.9406 17.0835Z" stroke="#8C8C8C" stroke-width="2" stroke-linecap="round" stroke-linejoin="round"/>
<path d="M36.1768 25.6252L27.6823 17.0835L8.99448 35.8752" stroke="#8C8C8C" stroke-width="2" stroke-linecap="round" stroke-linejoin="round"/>
</svg>
