<?xml version="1.0" standalone="no"?>
<!DOCTYPE svg PUBLIC "-//W3C//DTD SVG 20010904//EN"
 "http://www.w3.org/TR/2001/REC-SVG-20010904/DTD/svg10.dtd">
<svg version="1.0" xmlns="http://www.w3.org/2000/svg"
 width="2416.000000pt" height="2416.000000pt" viewBox="0 0 2416.000000 2416.000000"
 preserveAspectRatio="xMidYMid meet">
<metadata>
Created by potrace 1.14, written by Peter Selinger 2001-2017
</metadata>
<g transform="translate(0.000000,2416.000000) scale(0.100000,-0.100000)"
fill="#000000" stroke="none">
<path d="M9669 16704 c-6 -8 -15 -11 -20 -8 -5 3 -9 0 -9 -5 0 -6 -6 -11 -13
-11 -7 0 -29 -11 -50 -25 -20 -14 -37 -23 -37 -19 0 4 -8 0 -17 -8 -10 -8 -52
-33 -93 -54 -41 -21 -77 -41 -80 -44 -7 -7 -113 -64 -180 -98 -30 -15 -57 -30
-60 -33 -5 -5 -54 -33 -195 -109 -33 -18 -73 -40 -90 -50 -33 -19 -149 -82
-205 -112 -19 -10 -53 -29 -75 -41 -22 -13 -62 -36 -90 -51 -27 -15 -56 -33
-62 -38 -7 -6 -13 -7 -13 -2 0 5 -4 5 -8 -1 -7 -10 -53 -36 -137 -79 -22 -12
-42 -23 -45 -26 -3 -3 -18 -12 -35 -20 -16 -8 -66 -35 -110 -61 -81 -46 -103
-56 -119 -57 -5 0 -12 -5 -15 -10 -3 -6 -28 -22 -55 -36 -27 -14 -55 -31 -62
-37 -8 -6 -14 -8 -14 -4 0 5 -8 1 -17 -7 -10 -9 -52 -33 -93 -54 -41 -22 -76
-42 -78 -46 -2 -5 -7 -8 -12 -8 -4 0 -39 -17 -77 -38 -66 -38 -88 -50 -278
-154 -49 -27 -97 -53 -105 -58 -66 -39 -96 -55 -100 -55 -3 0 -25 -12 -50 -27
-74 -42 -153 -86 -190 -104 -19 -10 -37 -21 -40 -24 -3 -3 -30 -18 -60 -34
-30 -15 -82 -43 -115 -62 -33 -19 -72 -40 -87 -45 -16 -6 -28 -15 -28 -20 0
-5 -9 -9 -20 -9 -11 0 -20 -4 -20 -10 0 -5 -4 -10 -9 -10 -7 0 -77 -37 -201
-107 -20 -11 -71 -39 -115 -63 -44 -23 -84 -46 -90 -50 -5 -4 -44 -25 -85 -47
-41 -22 -91 -49 -110 -59 -19 -11 -37 -21 -40 -24 -6 -6 -88 -50 -175 -94 -33
-17 -62 -33 -65 -36 -3 -3 -14 -10 -25 -16 -82 -45 -164 -89 -187 -101 -15 -8
-30 -18 -33 -24 -4 -5 -15 -9 -25 -9 -10 0 -20 -4 -22 -8 -1 -5 -41 -29 -88
-54 -47 -25 -101 -54 -120 -65 -77 -44 -269 -149 -315 -172 -16 -9 -32 -18
-35 -21 -6 -6 -94 -54 -165 -90 -27 -14 -52 -28 -55 -31 -3 -4 -34 -21 -70
-40 -36 -18 -83 -44 -105 -58 -22 -14 -45 -26 -52 -27 -7 -1 -26 -12 -42 -23
-16 -12 -31 -21 -34 -21 -3 0 -62 -31 -131 -70 -68 -38 -130 -70 -135 -70 -6
0 -11 -4 -11 -9 0 -5 -16 -15 -35 -22 -19 -7 -35 -17 -35 -21 0 -4 -5 -8 -10
-8 -6 0 -66 -31 -135 -70 -69 -38 -127 -70 -131 -70 -3 0 -12 -6 -19 -14 -15
-14 -15 17 1 -1006 3 -206 6 -495 7 -642 1 -148 5 -268 9 -268 3 0 4 -9 1 -20
-3 -11 -2 -20 1 -20 6 0 69 33 221 115 28 15 93 50 145 78 52 28 122 66 155
84 33 18 80 42 105 55 25 12 47 24 50 27 3 3 34 21 70 39 110 57 145 77 152
87 4 6 8 7 8 3 0 -4 26 7 58 25 31 18 71 39 87 47 17 8 32 17 35 20 3 3 25 16
50 29 84 43 258 136 405 216 33 18 96 52 140 75 44 24 103 55 130 70 28 15
100 53 160 85 61 32 132 71 158 87 26 15 54 28 62 28 7 0 15 4 17 8 2 5 50 33
108 64 58 30 132 70 165 88 33 18 89 48 125 68 166 88 197 106 228 124 17 11
32 17 32 13 0 -3 16 6 35 21 19 14 35 24 35 20 0 -3 17 4 38 17 20 13 87 50
147 82 61 32 135 72 165 88 30 17 74 40 97 52 23 12 49 28 58 35 8 7 15 9 15
6 0 -4 12 1 28 12 15 10 52 31 82 47 105 54 185 97 196 106 6 5 14 6 17 2 4
-3 7 -2 7 3 0 6 36 28 80 49 44 21 80 43 80 47 0 4 8 8 18 8 10 0 29 8 42 17
14 10 48 30 75 44 62 33 195 104 255 137 127 69 207 113 225 121 11 5 44 23
73 40 28 17 52 28 52 25 0 -4 7 -1 16 7 16 13 97 57 194 106 30 16 57 30 60
33 3 3 28 17 55 31 28 15 75 40 105 56 73 40 220 119 295 158 84 44 192 103
241 131 23 13 44 20 48 17 3 -3 6 -2 6 4 0 6 21 21 48 33 26 12 49 25 52 29 3
3 46 26 95 51 50 24 92 47 95 50 3 3 36 21 75 40 38 19 75 40 82 47 10 9 23 7
56 -10 23 -12 44 -25 45 -29 2 -5 11 -8 21 -8 9 0 21 -4 26 -9 6 -5 145 -77
310 -161 300 -152 313 -158 350 -177 46 -23 678 -345 895 -456 129 -66 253
-129 275 -139 22 -10 47 -23 55 -27 8 -5 87 -46 175 -90 88 -45 230 -117 315
-161 85 -44 160 -80 167 -80 6 0 13 -3 15 -7 2 -5 75 -44 163 -88 88 -44 172
-88 188 -98 15 -10 27 -15 27 -12 0 3 13 -3 29 -14 16 -12 35 -21 43 -21 8 0
18 -4 24 -9 5 -6 158 -85 339 -177 182 -92 333 -172 337 -178 4 -6 8 -8 8 -3
0 7 203 -93 226 -112 6 -5 17 -11 25 -13 8 -2 83 -38 166 -81 84 -42 156 -77
159 -76 4 0 10 -3 13 -8 3 -4 51 -31 106 -58 55 -28 102 -53 103 -57 2 -5 11
-8 21 -8 9 0 21 -4 27 -9 5 -5 162 -86 349 -181 187 -94 346 -177 353 -182 6
-6 12 -7 12 -2 0 5 4 5 8 -1 4 -5 124 -68 267 -140 143 -71 262 -132 265 -135
7 -7 216 -110 222 -110 3 0 6 420 6 933 l0 933 -52 28 c-28 15 -87 47 -131 71
-92 49 -156 83 -345 185 -74 40 -157 85 -185 100 -54 29 -175 95 -270 146 -33
18 -80 43 -105 57 -163 87 -204 109 -275 147 -44 24 -98 53 -120 64 -22 12
-42 23 -45 26 -3 3 -30 17 -60 33 -30 15 -104 54 -165 87 -60 33 -130 70 -155
82 -25 12 -47 26 -48 30 -2 5 -8 6 -13 2 -5 -3 -9 0 -9 5 0 6 -4 11 -9 11 -5
0 -44 20 -87 43 -72 40 -170 92 -314 169 -30 16 -77 41 -105 56 -27 15 -79 43
-115 62 -36 18 -73 40 -82 48 -10 9 -18 12 -18 9 0 -4 -22 7 -49 23 -26 17
-53 30 -60 30 -6 0 -11 5 -11 12 0 6 -3 9 -6 5 -3 -3 -27 7 -52 22 -26 15 -87
49 -137 76 -49 26 -166 89 -260 140 -93 50 -177 94 -185 98 -16 8 -105 55
-230 124 -41 23 -97 53 -124 67 -27 14 -55 31 -62 37 -8 6 -14 8 -14 3 0 -5
-4 -4 -8 1 -4 6 -25 19 -47 31 -22 11 -57 31 -77 42 -21 12 -38 18 -38 14 0
-4 -4 -2 -8 4 -4 5 -56 37 -117 69 -60 32 -126 67 -145 77 -19 11 -71 38 -115
62 -44 23 -105 56 -135 72 -30 16 -57 31 -60 34 -3 3 -27 16 -55 29 -27 14
-58 31 -67 39 -10 9 -18 12 -18 7 0 -4 -6 -2 -14 4 -7 6 -35 23 -62 37 -127
67 -149 79 -154 84 -3 3 -38 21 -77 40 -40 19 -73 38 -73 43 0 4 -9 7 -20 7
-11 0 -20 3 -20 8 0 4 -15 14 -32 21 -18 8 -62 31 -98 52 -36 20 -112 61 -170
92 -58 31 -130 69 -160 86 -30 17 -72 38 -92 47 -21 9 -38 20 -38 25 0 5 -9 9
-19 9 -11 0 -22 4 -25 9 -3 5 -32 22 -63 38 -32 16 -83 43 -113 60 -149 82
-164 88 -181 67z"/>
<path d="M14079 16698 c-4 -67 -3 -88 3 -88 4 0 3 -13 -2 -30 -5 -18 -5 -32 1
-36 5 -3 6 -10 3 -16 -10 -16 -11 -50 -3 -74 4 -12 5 -25 2 -28 -8 -7 -10 -66
-3 -66 7 0 4 -69 -3 -76 -3 -3 -2 -17 3 -30 5 -13 6 -24 2 -24 -4 0 -7 -79 -7
-175 0 -96 2 -175 5 -175 7 0 3 -80 -4 -87 -3 -3 -1 -14 4 -24 7 -11 7 -20 0
-24 -6 -3 -6 -15 0 -30 6 -15 6 -27 0 -30 -6 -3 -6 -15 0 -30 6 -15 6 -25 0
-25 -5 0 -5 -12 0 -30 5 -17 5 -32 0 -35 -5 -3 -5 -16 0 -30 5 -14 6 -25 2
-25 -7 0 -6 -144 2 -165 2 -6 0 -18 -4 -25 -5 -8 -4 -22 1 -31 6 -11 5 -20 -1
-24 -6 -3 -6 -15 0 -30 6 -15 6 -27 0 -30 -6 -3 -6 -15 0 -30 6 -15 6 -27 0
-30 -6 -3 -6 -15 0 -30 6 -15 6 -25 0 -25 -5 0 -5 -12 0 -30 5 -16 6 -30 2
-30 -4 0 -7 -25 -7 -55 0 -30 3 -55 7 -55 4 0 3 -13 -2 -30 -5 -16 -5 -30 0
-30 4 0 6 -8 4 -17 -5 -20 -1 -23 186 -120 69 -36 148 -78 175 -93 28 -15 88
-47 135 -71 47 -24 88 -48 92 -54 4 -5 8 -6 8 -1 0 5 6 4 13 -2 6 -6 59 -35
117 -65 58 -31 148 -79 200 -107 52 -28 103 -54 113 -57 9 -3 17 -9 17 -14 0
-5 7 -9 15 -9 8 0 36 -12 62 -28 26 -15 62 -34 78 -42 17 -8 37 -20 47 -28 9
-7 22 -14 30 -16 7 -1 18 -5 24 -8 6 -4 46 -26 90 -49 43 -23 141 -75 216
-115 76 -41 140 -74 142 -74 2 0 39 -20 82 -43 91 -50 262 -141 382 -203 46
-24 90 -48 98 -55 8 -6 14 -8 14 -4 0 4 6 3 13 -3 16 -13 62 -38 167 -92 47
-24 93 -50 103 -58 9 -8 17 -12 17 -7 0 4 6 3 13 -3 7 -6 58 -34 112 -63 55
-28 141 -73 190 -99 50 -26 110 -59 135 -71 25 -13 48 -28 52 -34 4 -5 8 -7 8
-2 0 4 18 -4 40 -18 22 -14 58 -32 80 -41 22 -9 40 -20 40 -25 0 -5 7 -9 16
-9 9 0 29 -9 45 -21 16 -11 29 -17 29 -12 0 4 4 4 8 -2 7 -10 11 -12 187 -105
133 -70 309 -162 390 -206 33 -18 92 -49 130 -69 39 -20 129 -67 200 -105 72
-38 174 -92 227 -120 109 -56 158 -83 206 -112 17 -11 32 -16 32 -12 0 4 8 1
18 -8 9 -8 46 -29 82 -48 36 -18 88 -45 115 -60 28 -15 104 -56 170 -91 66
-35 152 -80 190 -100 39 -21 95 -50 125 -66 30 -16 116 -61 190 -100 74 -39
155 -82 180 -95 25 -12 47 -26 50 -29 3 -3 21 -11 40 -19 19 -8 37 -16 40 -20
3 -3 28 -17 55 -32 190 -100 246 -128 252 -128 5 0 8 412 8 916 l-1 916 -59
31 c-33 17 -62 34 -65 37 -3 3 -29 16 -57 29 -29 14 -53 28 -53 33 0 4 -9 8
-19 8 -11 0 -22 4 -26 9 -3 5 -36 24 -73 42 -37 18 -69 35 -72 39 -3 3 -48 27
-100 54 -52 27 -102 55 -112 63 -9 8 -23 16 -32 17 -9 1 -33 12 -54 25 -76 46
-232 129 -232 122 0 -3 -4 -1 -8 4 -7 10 -37 27 -156 89 -38 20 -75 41 -83 47
-7 6 -13 9 -13 5 0 -3 -28 11 -63 32 -34 20 -85 48 -112 62 -28 14 -52 27 -55
30 -3 3 -34 20 -70 38 -90 45 -147 77 -164 92 -8 6 -21 12 -28 14 -7 1 -42 18
-78 38 -117 65 -154 85 -240 130 -47 25 -116 62 -155 83 -38 21 -95 51 -125
67 -81 43 -165 89 -250 135 -109 60 -161 88 -290 155 -63 34 -116 65 -118 70
-2 4 -11 8 -21 8 -9 0 -21 4 -26 9 -6 6 -37 24 -70 42 -150 79 -191 102 -202
111 -7 6 -13 7 -13 3 0 -5 -8 -2 -17 7 -10 8 -40 25 -68 39 -27 13 -52 26 -55
29 -3 3 -30 18 -60 34 -30 16 -77 41 -105 56 -53 30 -191 103 -265 142 -25 12
-47 25 -50 28 -3 3 -30 17 -60 33 -30 15 -84 43 -120 63 -93 51 -245 133 -315
168 -33 17 -62 33 -65 36 -5 5 -32 20 -185 100 -55 29 -103 58 -107 64 -4 6
-8 8 -8 4 0 -4 -19 3 -42 16 -109 60 -249 136 -253 136 -2 0 -30 15 -62 34
-32 18 -101 56 -153 83 -52 28 -115 61 -140 75 -25 14 -94 51 -155 83 -60 32
-132 71 -158 87 -26 15 -50 28 -53 28 -4 0 -49 24 -103 54 -53 29 -136 75
-186 101 -49 26 -113 61 -142 76 -57 32 -73 35 -74 17z"/>
<path d="M18059 16267 c-4 -6 -3 -1380 1 -1386 3 -4 20 -13 38 -20 17 -8 32
-17 32 -22 0 -5 9 -9 19 -9 11 0 22 -3 24 -7 3 -5 63 -37 134 -73 70 -36 130
-67 133 -70 3 -3 41 -23 85 -45 44 -21 98 -50 119 -63 22 -13 44 -25 50 -26 6
-1 22 -8 36 -15 111 -60 164 -88 295 -156 83 -43 155 -81 160 -85 6 -4 18 -10
28 -13 16 -6 17 45 17 993 l0 998 -585 0 c-322 0 -586 -1 -586 -1z"/>
<path d="M2862 10433 c-148 -24 -277 -75 -392 -153 -69 -47 -200 -171 -200
-189 0 -7 -4 -9 -10 -6 -5 3 -10 1 -10 -6 0 -7 -11 -27 -25 -44 -32 -42 -111
-205 -120 -247 -4 -18 -12 -39 -17 -45 -6 -7 -8 -13 -5 -13 3 0 1 -15 -4 -32
-6 -18 -12 -46 -14 -63 -3 -16 -8 -41 -11 -55 -26 -112 -26 -479 1 -650 1 -8
5 -22 8 -30 3 -8 8 -28 11 -45 11 -80 100 -277 154 -344 137 -169 317 -272
552 -314 77 -14 320 -16 395 -3 271 47 479 169 625 367 28 36 50 70 50 74 0 4
8 19 19 33 27 40 78 179 101 277 19 80 26 123 35 220 8 79 4 420 -5 420 -1 0
-3 18 -6 40 -15 154 -96 375 -176 479 -136 176 -352 297 -593 332 -84 12 -286
10 -363 -3z m265 -24 c29 -2 53 -7 53 -10 0 -3 6 -6 13 -7 76 -5 195 -70 277
-152 84 -84 103 -109 147 -200 48 -98 58 -125 76 -205 3 -11 8 -31 11 -45 29
-123 37 -219 39 -425 1 -165 -6 -304 -18 -355 -3 -14 -8 -41 -10 -60 -7 -50
-56 -223 -68 -237 -5 -7 -6 -13 -3 -13 4 0 -8 -28 -25 -62 -93 -178 -199 -291
-337 -361 -50 -25 -92 -44 -94 -42 -2 2 -28 -2 -58 -9 -83 -19 -250 -11 -319
15 -14 6 -27 10 -29 9 -6 -3 -130 63 -155 83 -46 36 -127 120 -145 150 -9 15
-20 27 -25 27 -4 0 -6 4 -2 9 3 5 1 12 -5 16 -28 17 -101 217 -117 320 -2 17
-8 46 -13 65 -13 50 -23 204 -24 350 0 122 10 318 19 343 2 6 6 29 9 49 3 21
11 59 17 85 6 27 12 55 14 63 11 52 73 199 107 257 52 86 133 180 190 218 23
17 45 33 48 36 22 27 167 79 240 86 30 3 56 6 58 8 2 2 30 1 129 -6z"/>
<path d="M8968 10429 c-87 -17 -145 -33 -183 -49 -11 -5 -38 -16 -60 -26 -77
-33 -191 -117 -270 -199 -75 -77 -178 -228 -178 -260 0 -8 -4 -15 -8 -15 -6 0
-11 -12 -24 -62 -2 -5 -4 -10 -5 -13 -1 -3 -3 -8 -4 -12 -1 -5 -4 -12 -7 -18
-6 -9 -25 -85 -34 -131 -2 -11 -4 -19 -5 -19 -5 0 -21 -123 -25 -199 -2 -28
-4 -53 -5 -56 -7 -17 -4 -188 3 -202 5 -12 4 -18 -3 -18 -6 0 -8 -5 -4 -12 5
-7 9 -35 11 -63 3 -60 21 -178 34 -220 45 -155 73 -221 121 -292 15 -23 28
-44 28 -47 0 -14 134 -139 190 -176 108 -73 260 -129 400 -148 65 -9 332 -7
355 2 11 4 38 10 60 12 22 2 65 12 95 22 30 11 60 20 65 21 23 6 104 46 160
79 221 133 382 376 431 650 2 12 6 34 9 50 3 15 8 52 11 82 3 30 7 61 10 68 5
18 6 289 0 322 -2 14 -7 54 -10 90 -6 62 -9 83 -21 140 -3 14 -7 34 -9 45 -7
34 -48 150 -57 159 -5 6 -9 16 -9 23 0 7 -11 30 -24 51 -12 20 -23 40 -22 43
4 20 -188 218 -211 219 -7 0 -13 4 -13 8 0 12 -176 103 -184 95 -3 -3 -6 -2
-6 4 0 6 -12 13 -27 16 -16 3 -68 15 -118 27 -123 29 -336 33 -457 9z m310
-22 c17 -2 35 -7 39 -10 3 -4 16 -7 28 -7 11 0 26 -5 33 -12 7 -7 12 -9 12 -5
0 5 32 -9 70 -29 39 -21 70 -41 70 -46 0 -4 5 -8 10 -8 16 0 103 -89 148 -152
39 -53 98 -169 106 -206 1 -9 8 -30 15 -46 6 -16 14 -45 17 -65 3 -20 8 -39 9
-42 2 -3 7 -28 11 -55 3 -27 8 -58 10 -69 23 -116 22 -511 -1 -635 -2 -14 -9
-47 -14 -75 -5 -27 -7 -53 -5 -57 3 -5 0 -8 -7 -8 -7 0 -10 -3 -6 -6 3 -3 2
-17 -4 -31 -5 -13 -11 -38 -15 -56 -3 -18 -9 -36 -15 -41 -5 -6 -9 -16 -9 -23
0 -34 -122 -253 -141 -253 -5 0 -9 -5 -9 -12 0 -10 -74 -85 -124 -126 -19 -15
-107 -67 -121 -72 -26 -7 -42 -13 -65 -21 -71 -25 -213 -32 -306 -14 -35 6
-66 10 -69 7 -3 -3 -5 0 -5 6 0 7 -8 12 -17 12 -49 0 -168 74 -246 153 -108
108 -205 322 -224 492 -2 22 -6 51 -9 65 -29 134 -22 570 11 716 3 12 7 39 11
60 3 21 10 47 15 57 5 9 7 17 5 17 -3 0 2 19 10 43 9 23 17 47 18 52 1 6 12
31 24 57 12 26 22 52 22 57 0 6 5 11 12 11 6 0 9 3 5 6 -11 11 75 127 147 199
95 94 217 157 330 171 16 2 31 5 33 7 3 4 143 -1 191 -6z"/>
<path d="M16079 10442 c-12 -2 -63 -93 -74 -132 -3 -9 -26 -64 -57 -134 -17
-39 -31 -77 -31 -83 0 -7 -4 -13 -9 -13 -4 0 -7 -3 -6 -7 0 -5 -6 -25 -16 -46
-56 -126 -64 -147 -60 -147 3 0 -2 -7 -10 -16 -9 -8 -17 -22 -17 -30 -1 -8 -3
-17 -4 -21 -2 -5 -6 -18 -10 -30 -4 -13 -12 -23 -18 -23 -6 0 -8 -3 -4 -6 3
-4 -3 -25 -15 -48 -11 -22 -20 -42 -19 -44 0 -1 -10 -25 -24 -54 -14 -28 -25
-55 -25 -60 0 -8 -11 -34 -61 -143 -18 -41 -41 -96 -44 -105 0 -3 -11 -27 -23
-54 -12 -27 -22 -55 -22 -62 0 -8 -4 -14 -10 -14 -5 0 -10 -7 -10 -15 0 -9 -9
-34 -20 -55 -11 -22 -17 -40 -13 -40 5 0 2 -4 -5 -9 -7 -4 -14 -14 -16 -22 -1
-8 -12 -36 -24 -63 -12 -27 -22 -53 -22 -58 0 -5 -7 -20 -16 -33 -9 -13 -17
-30 -18 -37 -2 -7 -13 -35 -24 -61 -12 -27 -22 -53 -22 -58 0 -5 -4 -9 -10 -9
-5 0 -7 -7 -4 -15 4 -8 1 -15 -5 -15 -6 0 -11 -8 -11 -18 0 -10 -3 -22 -7 -26
-5 -4 -8 -11 -9 -14 0 -4 -11 -32 -24 -62 -14 -30 -24 -58 -22 -62 1 -5 -3 -8
-9 -8 -5 0 -7 -4 -4 -10 3 -5 1 -10 -4 -10 -6 0 -11 -7 -11 -15 0 -8 -14 -45
-31 -82 -37 -80 -69 -160 -69 -172 0 -18 32 -6 41 16 5 13 18 43 29 68 32 71
43 99 42 108 -1 4 2 7 8 7 5 0 10 6 10 13 0 12 61 158 70 167 3 3 6 12 8 20 2
8 14 39 28 68 13 29 24 55 24 58 0 5 56 130 69 154 7 13 70 15 457 18 433 2
495 0 493 -16 -1 -4 0 -10 1 -14 1 -5 3 -11 5 -15 1 -5 4 -15 8 -23 3 -8 17
-49 32 -90 47 -134 76 -214 96 -264 10 -27 19 -57 19 -67 0 -10 4 -20 9 -24 5
-3 13 -20 17 -38 3 -17 12 -45 20 -62 7 -16 17 -44 24 -61 l11 -30 132 2 c73
0 133 2 135 3 1 0 -5 18 -13 39 -9 20 -16 39 -17 42 -1 6 4 -7 -53 155 -25 72
-48 137 -52 145 -3 8 -7 20 -9 25 -1 6 -19 55 -39 110 -20 55 -38 105 -39 110
-2 6 -6 17 -9 25 -7 18 -83 231 -139 390 -22 63 -44 124 -49 135 -5 11 -13 34
-19 50 -5 17 -23 68 -40 115 -17 47 -32 90 -34 95 -4 12 -15 43 -26 70 -19 47
-60 170 -58 175 1 3 -5 16 -12 30 -8 14 -15 30 -16 37 -2 12 -49 142 -161 448
-13 36 -23 50 -34 47z m-99 -410 c6 -20 14 -44 17 -52 4 -8 7 -18 7 -22 1 -3
4 -10 9 -14 4 -4 7 -14 7 -23 0 -9 6 -27 13 -41 7 -14 24 -59 37 -100 13 -41
27 -77 30 -80 3 -3 6 -12 7 -20 2 -20 87 -264 93 -270 4 -3 12 -25 18 -50 7
-25 17 -54 22 -65 14 -33 42 -110 41 -113 -1 -1 6 -18 14 -38 8 -20 15 -39 15
-43 0 -3 13 -41 29 -83 22 -60 26 -80 16 -88 -6 -5 -15 -7 -18 -4 -3 3 -202 6
-441 5 -412 -1 -435 0 -429 16 3 10 18 45 33 78 14 33 37 87 51 120 13 33 27
62 32 63 4 2 7 9 7 17 0 7 10 34 22 61 12 27 22 51 23 54 0 3 3 10 7 15 3 6
25 55 48 110 23 55 50 118 60 140 19 43 41 91 85 195 15 36 36 83 46 106 11
22 19 46 19 52 0 7 5 12 10 12 6 0 9 3 8 8 -4 12 36 101 44 96 3 -2 12 -21 18
-42z"/>
<path d="M22840 10439 c-115 -14 -259 -53 -272 -73 -4 -6 -8 -8 -8 -4 0 11
-75 -29 -155 -83 -64 -43 -176 -144 -200 -181 -5 -9 -29 -43 -53 -77 -23 -33
-39 -61 -35 -61 4 0 3 -4 -3 -8 -11 -7 -71 -141 -79 -177 -2 -5 -10 -34 -19
-63 -8 -30 -15 -57 -15 -60 1 -4 0 -9 -1 -12 -5 -15 -18 -96 -27 -169 -13
-119 -6 -394 13 -511 10 -62 20 -112 24 -117 2 -2 3 -6 4 -10 1 -5 6 -23 10
-41 4 -18 14 -46 23 -63 8 -16 16 -35 17 -42 4 -20 40 -91 54 -105 6 -7 12
-20 12 -28 0 -8 4 -14 8 -14 4 0 16 -14 26 -30 41 -71 244 -228 316 -245 3 -1
19 -7 35 -14 108 -45 228 -64 400 -64 172 -1 235 8 395 58 3 1 18 7 33 13 16
7 31 12 33 12 3 0 38 19 77 42 126 72 225 164 303 278 24 36 44 70 44 77 0 7
4 13 8 13 7 0 66 142 77 185 9 34 35 149 39 173 20 100 26 399 11 542 -4 36
-8 75 -8 88 -1 12 -6 22 -11 22 -5 0 -7 2 -4 6 3 3 2 22 -4 42 -5 20 -10 46
-12 57 -12 70 -117 295 -138 295 -5 0 -8 5 -8 10 0 11 -58 79 -93 109 -10 9
-32 28 -49 43 -17 15 -34 25 -38 23 -5 -3 -10 1 -13 8 -4 10 -122 74 -182 98
-33 13 -127 38 -169 45 -21 3 -48 8 -60 11 -35 8 -248 10 -306 2z m274 -39
c52 -12 60 -14 131 -45 83 -36 189 -127 243 -210 15 -22 30 -42 33 -45 5 -5
59 -116 79 -165 8 -20 23 -74 36 -130 10 -43 11 -49 19 -97 3 -24 8 -56 11
-73 12 -82 19 -348 9 -364 -3 -5 -1 -12 5 -16 6 -4 8 -10 5 -15 -3 -4 -7 -44
-11 -89 -3 -45 -7 -90 -8 -99 -3 -15 -7 -37 -22 -130 -3 -15 -6 -36 -7 -47 -1
-11 -8 -26 -15 -33 -7 -8 -10 -17 -7 -22 13 -22 -91 -252 -145 -321 -17 -20
-30 -39 -30 -42 0 -8 -69 -75 -114 -111 -47 -38 -125 -85 -153 -91 -10 -3 -43
-12 -73 -21 -73 -21 -236 -22 -320 -1 -85 21 -210 79 -210 98 0 5 -5 9 -11 9
-18 0 -98 81 -143 145 -43 61 -85 143 -111 220 -17 49 -43 162 -50 220 -2 11
-7 45 -11 75 -10 65 -10 508 0 565 3 22 9 56 11 75 2 19 7 46 10 60 3 14 8 38
10 53 10 53 65 208 97 270 56 113 156 227 253 292 60 39 167 83 222 90 20 2
37 6 39 8 8 7 180 -2 228 -13z"/>
<path d="M1135 10424 c-88 -12 -121 -17 -160 -28 -9 -2 -90 -26 -105 -31 -10
-3 -45 -18 -87 -36 -23 -11 -44 -19 -47 -19 -12 0 -154 -91 -186 -119 -69 -61
-84 -77 -128 -136 -101 -136 -185 -364 -197 -534 -1 -20 -4 -38 -5 -41 -6 -12
-4 -350 1 -350 4 0 6 -16 5 -35 -1 -19 1 -35 4 -35 3 0 5 -15 5 -32 0 -18 3
-41 7 -50 4 -9 11 -33 14 -54 9 -56 62 -200 102 -274 112 -209 316 -357 587
-426 28 -7 136 -26 185 -32 112 -13 424 -6 530 12 63 11 101 20 143 31 26 8
47 11 47 7 0 -3 5 -1 12 6 7 7 20 12 30 12 11 0 18 7 18 20 0 22 -13 22 -65 1
-16 -7 -43 -14 -60 -16 -16 -1 -41 -5 -55 -9 -14 -3 -41 -8 -60 -11 -19 -2
-46 -7 -59 -9 -135 -28 -482 -24 -517 5 -7 5 -16 9 -20 8 -10 -2 -33 5 -84 28
-138 61 -245 143 -310 238 -63 92 -142 290 -166 415 -21 107 -37 263 -36 335
1 75 13 277 17 300 26 145 39 202 48 213 5 6 7 12 3 12 -6 0 28 102 45 132 5
10 9 25 9 33 0 8 3 15 8 15 4 0 13 15 21 33 37 84 149 209 243 269 71 46 170
92 223 104 47 11 72 16 101 18 17 2 35 5 40 7 9 5 214 3 224 -1 3 -1 23 -4 45
-5 22 -2 40 -4 40 -5 0 -1 11 -3 25 -5 42 -6 82 -15 155 -36 90 -27 87 -27 90
-7 2 12 -7 19 -28 24 -40 10 -39 9 -57 17 -14 6 -49 14 -95 22 -11 2 -36 6
-55 10 -72 14 -98 16 -220 19 -69 1 -170 -3 -225 -10z"/>
<path d="M4355 10431 c-3 -2 -5 -507 -5 -1122 0 -1112 0 -1118 20 -1116 19 1
20 8 20 122 0 66 0 482 0 924 0 443 4 801 8 795 9 -9 72 -106 207 -314 155
-240 225 -346 235 -357 5 -7 10 -14 10 -17 0 -3 47 -76 103 -163 259 -395 297
-454 297 -463 0 -4 4 -10 8 -12 7 -3 72 -95 72 -102 0 -2 45 -72 100 -155 55
-83 100 -156 100 -161 0 -6 5 -10 10 -10 6 0 10 -7 10 -15 0 -8 5 -15 10 -15
6 0 10 -5 10 -11 0 -6 8 -18 17 -27 13 -14 38 -17 130 -17 l113 -1 0 1117 c0
615 -4 1120 -8 1123 -32 19 -32 -5 -32 -1040 0 -1141 6 -1039 -52 -949 -7 10
-28 41 -45 67 -18 26 -33 50 -33 53 0 3 -16 27 -35 54 -19 26 -35 53 -35 59 0
6 -4 12 -8 14 -4 2 -25 31 -46 66 -21 34 -43 68 -49 75 -7 6 -18 23 -25 37
-12 25 -30 55 -45 74 -18 23 -167 258 -167 262 0 3 -5 10 -11 17 -21 24 -169
259 -169 268 0 5 -3 9 -8 9 -4 0 -16 17 -27 37 -11 20 -25 41 -30 47 -6 6 -30
43 -53 81 -24 39 -48 79 -55 90 -7 10 -17 25 -24 32 -6 7 -15 22 -18 33 -3 11
-10 20 -15 20 -5 0 -12 9 -15 20 -4 11 -18 34 -32 50 -13 17 -22 30 -19 30 3
0 -15 30 -40 68 -24 37 -49 74 -54 82 -6 8 -46 70 -90 137 -44 68 -80 125 -80
128 0 3 -5 11 -10 18 -6 7 -18 23 -29 36 -14 20 -28 25 -65 26 -26 0 -49 -1
-51 -4z"/>
<path d="M6408 10432 l-148 -3 1 -1117 0 -1117 137 -4 c364 -10 560 -5 640 18
17 5 32 8 32 6 0 -2 18 2 40 10 22 8 40 12 40 10 0 -2 12 2 27 10 15 8 30 12
35 9 4 -3 8 0 8 6 0 6 4 9 9 6 14 -9 212 96 277 146 109 84 173 164 240 298
30 62 77 198 89 257 15 80 18 101 19 130 1 18 4 33 7 33 8 0 3 355 -6 400 -4
19 -7 42 -7 50 0 25 -49 221 -63 254 -44 102 -60 135 -90 181 -44 67 -72 101
-120 146 -68 64 -100 89 -112 89 -7 0 -13 5 -13 10 0 6 -6 10 -14 10 -8 0 -16
3 -18 8 -4 9 -139 75 -178 87 -3 1 -29 9 -58 18 -30 9 -79 21 -110 26 -32 6
-73 13 -92 17 -39 7 -349 10 -572 6z m499 -36 c107 -13 303 -100 377 -168 11
-10 24 -18 28 -18 5 0 6 -4 3 -10 -3 -5 0 -10 7 -10 16 -1 94 -106 132 -177
49 -95 105 -267 122 -373 12 -81 13 -94 20 -175 9 -124 10 -224 2 -218 -5 2
-4 -7 1 -20 6 -14 7 -28 4 -31 -4 -3 -8 -34 -10 -69 -4 -63 -10 -122 -13 -122
-1 0 -3 -12 -5 -28 -3 -22 -19 -103 -31 -152 -5 -22 -49 -140 -54 -145 -3 -3
-6 -10 -7 -16 -6 -33 -86 -146 -152 -214 -166 -170 -315 -230 -587 -234 -83
-1 -167 -1 -185 2 l-34 4 2 1071 c2 1207 1 1110 11 1104 4 -3 15 -2 24 2 21 7
274 6 345 -3z"/>
<path d="M11488 10429 c-5 -3 -9 -28 -8 -55 1 -27 1 -53 0 -59 -1 -5 -2 -14
-1 -19 5 -25 3 -137 -2 -142 -3 -3 -4 -11 -2 -17 11 -30 13 -67 4 -73 -5 -3
-7 -9 -4 -14 5 -8 9 -438 4 -465 -1 -5 -1 -14 0 -18 1 -7 1 -209 0 -257 0 -8
0 -55 1 -105 1 -49 0 -94 -1 -100 -1 -5 -1 -14 0 -19 2 -12 2 -448 0 -461 -1
-5 -1 -14 0 -18 1 -5 1 -63 1 -130 -1 -115 0 -145 3 -242 l2 -40 120 -1 c66
-1 125 1 130 3 7 2 11 124 10 371 -1 367 2 405 35 444 5 7 24 29 40 48 16 19
30 38 30 42 0 4 6 16 14 25 43 52 86 114 86 123 0 6 4 10 8 10 5 0 17 15 27
34 11 19 23 33 27 30 4 -3 8 1 8 8 1 15 47 74 54 68 6 -6 76 -128 90 -157 6
-13 14 -23 19 -23 4 0 7 -4 7 -9 0 -9 109 -197 140 -241 10 -14 18 -28 19 -33
1 -8 24 -48 52 -89 11 -15 19 -30 19 -33 0 -3 16 -31 35 -61 19 -30 35 -59 35
-64 0 -6 5 -10 10 -10 6 0 10 -5 10 -11 0 -6 19 -42 43 -80 65 -109 85 -142
96 -164 6 -11 39 -67 74 -125 l63 -105 146 -1 c129 0 145 1 140 15 -5 13 -159
280 -192 331 -5 8 -24 40 -41 70 -18 30 -39 63 -48 74 -9 10 -14 19 -12 20 3
0 -7 19 -21 41 -14 22 -53 87 -87 145 -85 145 -81 138 -123 207 -21 34 -38 67
-38 73 0 5 -4 10 -10 10 -5 0 -10 4 -10 10 0 5 -18 39 -40 75 -22 36 -40 70
-40 75 0 6 -3 10 -7 10 -5 0 -21 26 -38 58 -16 31 -32 59 -35 62 -11 10 -80
132 -80 141 0 5 -5 9 -11 9 -7 0 -4 11 7 28 37 56 136 187 145 190 5 2 9 9 9
16 0 7 10 25 23 39 12 14 33 42 47 62 14 20 30 42 35 48 36 43 95 128 95 137
0 6 5 8 10 5 6 -3 10 -1 10 5 0 10 82 127 135 192 38 47 48 69 36 81 -8 8 -14
8 -19 1 -16 -24 -108 -150 -119 -164 -44 -55 -143 -193 -143 -200 0 -5 -6 -13
-14 -17 -7 -4 -19 -18 -25 -31 -12 -22 -19 -32 -63 -84 -10 -12 -18 -24 -18
-28 0 -3 -8 -15 -18 -26 -16 -17 -142 -189 -182 -247 -8 -12 -35 -49 -60 -82
-25 -33 -56 -77 -70 -97 -14 -21 -28 -38 -32 -38 -5 0 -8 -4 -8 -10 0 -5 -7
-18 -15 -27 -37 -44 -145 -195 -145 -202 0 -4 -11 -18 -25 -31 -14 -13 -25
-29 -25 -37 0 -7 -3 -13 -7 -13 -5 0 -17 -14 -28 -30 -11 -16 -22 -30 -25 -30
-3 0 -5 316 -5 702 l0 702 -123 0 c-68 1 -128 -2 -134 -5z"/>
<path d="M13313 10433 c-5 -2 -8 -506 -7 -1121 l0 -1117 130 -1 c71 0 131 2
134 7 3 4 5 269 4 588 l0 581 30 1 c41 0 954 0 986 0 l25 -1 -2 -567 c-1 -313
0 -577 2 -589 4 -20 11 -21 134 -21 l129 1 -2 30 c-1 17 2 39 6 49 5 9 5 17 1
17 -4 0 -7 73 -5 163 3 205 3 175 1 363 -1 88 1 166 5 172 4 7 4 12 -1 12 -4
0 -8 54 -8 120 0 66 4 120 8 120 5 0 5 5 1 12 -6 9 -9 164 -4 186 1 4 1 12 0
17 -1 6 -2 100 -1 210 1 110 2 211 1 225 -5 110 -3 310 3 310 5 0 5 5 1 12 -4
7 -7 58 -7 115 1 57 -2 103 -5 104 -24 3 -230 4 -243 1 -14 -3 -16 -54 -15
-513 1 -446 -1 -509 -14 -510 -8 -1 -243 -2 -521 -3 l-506 -1 1 512 c1 282 -1
513 -4 514 -12 2 -250 4 -257 2z"/>
<path d="M17687 10434 c-1 -1 -81 -5 -177 -9 -96 -3 -191 -8 -210 -10 -19 -1
-52 -3 -72 -4 l-38 -1 0 -1108 0 -1108 133 1 132 0 1 510 c1 281 2 519 3 530
1 19 7 20 188 18 104 -1 198 -2 210 -2 15 -1 25 -9 29 -26 3 -14 10 -25 15
-25 5 0 9 -4 9 -9 0 -5 54 -100 120 -211 66 -111 120 -204 120 -206 0 -1 14
-23 30 -47 17 -25 30 -50 30 -56 0 -6 5 -11 10 -11 6 0 10 -4 10 -9 0 -6 32
-62 70 -127 39 -64 70 -120 70 -124 0 -5 3 -10 8 -12 9 -4 51 -76 59 -100 3
-10 9 -18 14 -18 5 0 9 -6 9 -14 0 -8 9 -24 19 -37 18 -23 25 -24 158 -25 76
-1 141 1 145 3 4 2 -6 25 -22 52 -17 27 -30 53 -30 60 0 6 -4 11 -8 11 -5 0
-16 15 -25 33 -17 33 -55 98 -89 152 -10 17 -21 38 -24 48 -4 9 -10 17 -15 17
-5 0 -9 4 -9 10 0 5 -38 73 -85 151 -47 78 -85 146 -85 151 0 4 -4 8 -9 8 -5
0 -11 8 -14 18 -4 9 -20 40 -37 67 -17 28 -33 57 -37 65 -4 8 -9 17 -13 20
-15 12 -119 203 -115 210 3 4 27 13 55 20 28 7 53 16 56 21 3 5 10 7 15 4 5
-4 9 -2 9 3 0 5 6 9 13 9 21 0 128 74 162 111 37 42 95 142 117 202 59 162 56
376 -8 502 -37 72 -167 194 -216 202 -7 1 -19 5 -25 9 -7 5 -36 15 -65 24 -68
21 -67 21 -103 28 -16 3 -39 7 -50 10 -57 12 -427 28 -438 19z m150 -37 c7 -4
14 -4 16 1 5 7 40 6 112 -3 17 -2 30 -4 30 -5 0 -1 9 -3 20 -4 35 -5 68 -17
131 -47 63 -31 154 -111 154 -136 0 -7 5 -13 10 -13 6 0 9 -3 8 -7 0 -5 7 -26
17 -48 9 -22 18 -44 20 -50 1 -5 6 -19 11 -30 16 -38 11 -303 -9 -395 -10 -47
-50 -150 -58 -150 -6 0 -8 -4 -5 -9 15 -23 -143 -179 -166 -165 -4 3 -8 1 -8
-4 0 -6 -33 -18 -72 -28 -60 -14 -119 -18 -326 -18 -159 -1 -256 3 -260 9 -10
15 -8 1076 1 1082 11 7 132 16 219 17 38 1 68 3 68 6 0 8 74 5 87 -3z"/>
<path d="M19054 10431 c-17 -17 2 -28 49 -28 28 0 61 -1 72 -2 20 -1 20 -8 20
-1084 1 -595 -3 -1084 -7 -1087 -4 -3 -36 -5 -72 -4 -56 2 -66 -1 -66 -15 0
-16 22 -17 285 -17 254 1 285 2 285 17 0 13 -13 16 -70 16 -38 1 -74 2 -78 2
-13 1 -11 2160 1 2168 6 3 40 6 76 7 51 1 66 4 66 16 0 12 -42 14 -278 15
-153 0 -281 -2 -283 -4z"/>
<path d="M20078 10429 c-7 -5 -11 -350 -10 -1100 0 -602 1 -1103 1 -1114 1
-19 9 -20 134 -24 227 -7 479 -6 543 1 317 36 611 201 755 423 25 39 84 157
80 163 -1 1 6 16 14 32 9 17 13 30 9 30 -4 0 -1 6 5 13 6 8 8 17 4 20 -3 4 -1
7 6 7 7 0 10 4 7 9 -4 5 -2 20 3 34 5 14 13 44 16 68 4 24 9 47 11 50 21 35
21 504 -1 538 -2 4 -6 27 -10 51 -3 25 -11 63 -17 85 -7 22 -12 43 -14 48 -1
4 -3 9 -4 12 -1 3 -4 10 -5 15 -1 6 -3 11 -5 13 -1 1 -3 10 -5 19 -13 69 -175
328 -205 328 -5 0 -12 9 -15 21 -4 11 -9 18 -12 15 -3 -3 -19 8 -37 24 -17 17
-35 30 -39 30 -5 0 -15 6 -22 13 -25 22 -40 33 -45 34 -3 0 -43 18 -90 40 -47
22 -112 48 -145 58 -65 19 -69 19 -135 30 -25 3 -58 9 -75 13 -41 8 -684 9
-697 1z m637 -33 c22 -2 41 -5 43 -5 1 -1 4 -1 7 -1 7 0 123 -45 173 -66 23
-10 42 -22 42 -26 0 -5 9 -8 20 -8 11 0 20 -4 20 -9 0 -5 9 -12 19 -16 28 -9
156 -136 176 -176 10 -19 21 -36 25 -39 13 -9 79 -168 104 -252 24 -81 31
-111 40 -173 3 -16 8 -48 12 -70 9 -50 9 -401 0 -475 -12 -102 -21 -155 -32
-192 -3 -9 -7 -27 -9 -39 -3 -12 -12 -45 -21 -73 -10 -28 -15 -52 -13 -52 2
-1 -4 -10 -13 -20 -9 -11 -16 -23 -16 -27 0 -16 -25 -67 -33 -67 -5 0 -9 -5
-9 -11 0 -34 -113 -162 -208 -237 -52 -40 -170 -102 -196 -102 -7 0 -16 -3
-20 -7 -4 -5 -11 -8 -14 -8 -8 -1 -80 -16 -102 -22 -21 -6 -300 -10 -341 -5
l-35 4 1 1086 0 1087 22 0 c12 0 24 2 26 5 6 6 272 3 332 -4z"/>
</g>
</svg>
