<svg width="151" height="58" viewBox="0 0 151 58" fill="none" xmlns="http://www.w3.org/2000/svg">
<path d="M8.31398 53.3652C5.82065 53.3652 3.97398 52.6585 2.77398 51.2452C2.34732 50.7385 2.00065 50.0652 1.73398 49.2252C1.46732 48.3852 1.33398 47.3652 1.33398 46.1652C1.33398 44.9652 1.52732 43.8918 1.91398 42.9452C2.31398 41.9852 2.85398 41.2452 3.53398 40.7252C4.85398 39.7518 6.44732 39.2652 8.31398 39.2652C8.84732 39.2652 9.36732 39.3118 9.87398 39.4052C10.3807 39.4852 10.7607 39.5718 11.014 39.6652L11.374 39.8052L11.314 40.0052C10.4073 39.6452 9.40732 39.4652 8.31398 39.4652C6.90065 39.4652 5.72065 39.9252 4.77398 40.8452C4.05398 41.5252 3.54732 42.5252 3.25398 43.8452C3.08065 44.5918 2.99398 45.5052 2.99398 46.5852C2.99398 47.6652 3.14732 48.6652 3.45398 49.5852C3.76065 50.4918 4.10732 51.1652 4.49398 51.6052C4.89398 52.0452 5.37398 52.3985 5.93398 52.6652C6.49398 52.9185 6.94065 53.0652 7.27398 53.1052C7.60732 53.1452 8.00732 53.1652 8.47398 53.1652C8.95398 53.1652 9.49398 53.1185 10.094 53.0252C10.694 52.9318 11.1473 52.8452 11.454 52.7652L11.914 52.6252L11.974 52.8252C10.9607 53.1852 9.74065 53.3652 8.31398 53.3652ZM12.6816 46.6252C12.6816 44.1985 13.2683 42.3585 14.4416 41.1052C15.6283 39.8385 17.1483 39.2052 19.0016 39.2052C20.855 39.2052 22.3283 39.7518 23.4216 40.8452C24.5283 41.9385 25.0816 43.6852 25.0816 46.0852C25.0816 48.4852 24.495 50.2985 23.3216 51.5252C22.1483 52.7518 20.5816 53.3652 18.6216 53.3652C16.9283 53.3652 15.5416 52.8785 14.4616 51.9052C13.9016 51.3985 13.4616 50.6985 13.1416 49.8052C12.835 48.8985 12.6816 47.8385 12.6816 46.6252ZM18.9416 39.4052C17.595 39.4052 16.4883 40.0052 15.6216 41.2052C14.7683 42.4052 14.3416 44.1652 14.3416 46.4852C14.3416 48.8052 14.7483 50.4985 15.5616 51.5652C16.375 52.6318 17.455 53.1652 18.8016 53.1652C20.1616 53.1652 21.2683 52.5652 22.1216 51.3652C22.9883 50.1518 23.4216 48.3985 23.4216 46.1052C23.4216 43.7985 23.0083 42.1052 22.1816 41.0252C21.3683 39.9452 20.2883 39.4052 18.9416 39.4052ZM27.4409 53.2852H27.1809V39.2852H27.8609L36.1809 52.2252V39.2852H36.4409V53.2852H34.9809L27.4409 41.6852V53.2852ZM40.7363 39.3052C41.323 39.2785 41.8963 39.2652 42.4563 39.2652C43.0297 39.2652 43.6297 39.3252 44.2563 39.4452C44.8963 39.5652 45.523 39.7918 46.1363 40.1252C46.763 40.4452 47.2897 40.8652 47.7163 41.3852C48.1563 41.8918 48.5097 42.5652 48.7763 43.4052C49.043 44.2452 49.1763 45.2652 49.1763 46.4652C49.1763 47.6652 48.9763 48.7452 48.5763 49.7052C48.1897 50.6518 47.6563 51.3785 46.9763 51.8852C45.6563 52.8718 44.063 53.3652 42.1963 53.3652C41.543 53.3652 40.8563 53.3385 40.1363 53.2852H39.1363V39.3052H40.7363ZM40.7963 53.1252C41.0763 53.1518 41.4297 53.1652 41.8563 53.1652C42.283 53.1652 42.603 53.1585 42.8163 53.1452C43.0297 53.1318 43.323 53.0785 43.6963 52.9852C44.0697 52.8785 44.4163 52.7385 44.7363 52.5652C45.0563 52.3918 45.3897 52.1385 45.7363 51.8052C46.0963 51.4585 46.403 51.0518 46.6563 50.5852C47.2297 49.4918 47.5163 48.0652 47.5163 46.3052C47.5163 45.0518 47.363 43.9718 47.0563 43.0652C46.7497 42.1452 46.3963 41.4652 45.9963 41.0252C45.6097 40.5852 45.1363 40.2385 44.5763 39.9852C44.0163 39.7185 43.5697 39.5652 43.2363 39.5252C42.903 39.4852 42.5163 39.4652 42.0763 39.4652C41.6363 39.4652 41.2097 39.4852 40.7963 39.5252V53.1252ZM50.9824 46.6252C50.9824 44.1985 51.5691 42.3585 52.7424 41.1052C53.9291 39.8385 55.4491 39.2052 57.3024 39.2052C59.1558 39.2052 60.6291 39.7518 61.7224 40.8452C62.8291 41.9385 63.3824 43.6852 63.3824 46.0852C63.3824 48.4852 62.7958 50.2985 61.6224 51.5252C60.4491 52.7518 58.8824 53.3652 56.9224 53.3652C55.2291 53.3652 53.8424 52.8785 52.7624 51.9052C52.2024 51.3985 51.7624 50.6985 51.4424 49.8052C51.1358 48.8985 50.9824 47.8385 50.9824 46.6252ZM57.2424 39.4052C55.8958 39.4052 54.7891 40.0052 53.9224 41.2052C53.0691 42.4052 52.6424 44.1652 52.6424 46.4852C52.6424 48.8052 53.0491 50.4985 53.8624 51.5652C54.6758 52.6318 55.7558 53.1652 57.1024 53.1652C58.4624 53.1652 59.5691 52.5652 60.4224 51.3652C61.2891 50.1518 61.7224 48.3985 61.7224 46.1052C61.7224 43.7985 61.3091 42.1052 60.4824 41.0252C59.6691 39.9452 58.5891 39.4052 57.2424 39.4052ZM73.4135 39.2852V48.1252L79.8735 39.2852L80.0335 39.4252L76.4535 44.3052L81.7735 53.2852H79.9135L75.4335 45.7052L73.4135 48.4852V53.2852H71.7535V39.2852H73.4135ZM84.8299 53.2852H83.1699V39.2852H84.8299V45.7252H91.3299V39.2852H92.9899V53.2852H91.3299V45.9252H84.8299V53.2852ZM94.631 53.2852H94.391L100.371 39.2852L100.591 39.1852L105.631 53.2852H103.931L102.371 48.8852H96.531L94.631 53.2852ZM99.751 41.4452L96.611 48.6852H102.311L99.751 41.4452ZM107.437 39.4452C108.984 39.3385 110.35 39.2852 111.537 39.2852C114.83 39.2852 116.477 40.3852 116.477 42.5852C116.477 43.5185 116.25 44.3518 115.797 45.0852C115.344 45.8185 114.564 46.3052 113.457 46.5452L117.457 53.2852H115.597L111.677 46.6652H109.097V53.2852H107.437V39.4452ZM111.537 39.4852C110.764 39.4852 109.95 39.5318 109.097 39.6252V46.4652H112.057C113.937 46.3852 114.877 45.1052 114.877 42.6252C114.877 41.6118 114.597 40.8385 114.037 40.3052C113.477 39.7585 112.644 39.4852 111.537 39.4852ZM119.058 39.4852V39.2852H122.618V39.4852H121.638V53.0852H122.618V53.2852H119.058V53.0852H119.978V39.4852H119.058ZM127.025 39.3052C127.612 39.2785 128.185 39.2652 128.745 39.2652C129.319 39.2652 129.919 39.3252 130.545 39.4452C131.185 39.5652 131.812 39.7918 132.425 40.1252C133.052 40.4452 133.579 40.8652 134.005 41.3852C134.445 41.8918 134.799 42.5652 135.065 43.4052C135.332 44.2452 135.465 45.2652 135.465 46.4652C135.465 47.6652 135.265 48.7452 134.865 49.7052C134.479 50.6518 133.945 51.3785 133.265 51.8852C131.945 52.8718 130.352 53.3652 128.485 53.3652C127.832 53.3652 127.145 53.3385 126.425 53.2852H125.425V39.3052H127.025ZM127.085 53.1252C127.365 53.1518 127.719 53.1652 128.145 53.1652C128.572 53.1652 128.892 53.1585 129.105 53.1452C129.319 53.1318 129.612 53.0785 129.985 52.9852C130.359 52.8785 130.705 52.7385 131.025 52.5652C131.345 52.3918 131.679 52.1385 132.025 51.8052C132.385 51.4585 132.692 51.0518 132.945 50.5852C133.519 49.4918 133.805 48.0652 133.805 46.3052C133.805 45.0518 133.652 43.9718 133.345 43.0652C133.039 42.1452 132.685 41.4652 132.285 41.0252C131.899 40.5852 131.425 40.2385 130.865 39.9852C130.305 39.7185 129.859 39.5652 129.525 39.5252C129.192 39.4852 128.805 39.4652 128.365 39.4652C127.925 39.4652 127.499 39.4852 127.085 39.5252V53.1252ZM137.271 46.6252C137.271 44.1985 137.858 42.3585 139.031 41.1052C140.218 39.8385 141.738 39.2052 143.591 39.2052C145.445 39.2052 146.918 39.7518 148.011 40.8452C149.118 41.9385 149.671 43.6852 149.671 46.0852C149.671 48.4852 149.085 50.2985 147.911 51.5252C146.738 52.7518 145.171 53.3652 143.211 53.3652C141.518 53.3652 140.131 52.8785 139.051 51.9052C138.491 51.3985 138.051 50.6985 137.731 49.8052C137.425 48.8985 137.271 47.8385 137.271 46.6252ZM143.531 39.4052C142.185 39.4052 141.078 40.0052 140.211 41.2052C139.358 42.4052 138.931 44.1652 138.931 46.4852C138.931 48.8052 139.338 50.4985 140.151 51.5652C140.965 52.6318 142.045 53.1652 143.391 53.1652C144.751 53.1652 145.858 52.5652 146.711 51.3652C147.578 50.1518 148.011 48.3985 148.011 46.1052C148.011 43.7985 147.598 42.1052 146.771 41.0252C145.958 39.9452 144.878 39.4052 143.531 39.4052Z" fill="black"/>
<path d="M21.9985 33.5964L21.8164 21.3776L60.5952 0V12.8457L21.9985 33.5964Z" fill="#4997D0"/>
<path d="M60.5938 12.8457V0L99.1684 20.7726V32.4698L60.5938 12.8457Z" fill="#2F78AE"/>
<path d="M88 11.8575V0L127.337 21.176V32.6715L88 11.8575Z" fill="#4997D0"/>
<path d="M120.191 2.82324H112.844V11.4953L120.191 15.3272V2.82324Z" fill="#2F78AE"/>
</svg>
