<svg width="24" height="24" viewBox="0 0 24 24" fill="none" xmlns="http://www.w3.org/2000/svg">
<path d="M20 3.75781H4C2.897 3.75781 2 4.65481 2 5.75781V17.7578C2 18.8608 2.897 19.7578 4 19.7578H20C21.103 19.7578 22 18.8608 22 17.7578V5.75781C22 4.65481 21.103 3.75781 20 3.75781ZM20 5.75781V6.26881L12 12.4918L4 6.26981V5.75781H20ZM4 17.7578V8.80181L11.386 14.5468C11.5611 14.6844 11.7773 14.7591 12 14.7591C12.2227 14.7591 12.4389 14.6844 12.614 14.5468L20 8.80181L20.002 17.7578H4Z" fill="#1C1C1E"/>
</svg>
