<svg width="24" height="24" viewBox="0 0 24 24" fill="none" xmlns="http://www.w3.org/2000/svg">
<path d="M17.7064 13.05C17.6136 12.9571 17.5034 12.8834 17.382 12.833C17.2607 12.7827 17.1307 12.7568 16.9994 12.7568C16.868 12.7568 16.738 12.7827 16.6167 12.833C16.4953 12.8834 16.3851 12.9571 16.2924 13.05L14.6984 14.644C13.9594 14.424 12.5804 13.924 11.7064 13.05C10.8324 12.176 10.3324 10.797 10.1124 10.058L11.7064 8.46404C11.7993 8.37125 11.873 8.26105 11.9234 8.13973C11.9737 8.01842 11.9996 7.88837 11.9996 7.75704C11.9996 7.6257 11.9737 7.49566 11.9234 7.37434C11.873 7.25303 11.7993 7.14283 11.7064 7.05004L7.70636 3.05004C7.61357 2.95709 7.50337 2.88335 7.38205 2.83304C7.26074 2.78273 7.13069 2.75684 6.99936 2.75684C6.86802 2.75684 6.73798 2.78273 6.61666 2.83304C6.49535 2.88335 6.38515 2.95709 6.29236 3.05004L3.58036 5.76204C3.20036 6.14204 2.98636 6.66404 2.99436 7.19704C3.01736 8.62104 3.39436 13.567 7.29236 17.465C11.1904 21.363 16.1364 21.739 17.5614 21.763H17.5894C18.1174 21.763 18.6164 21.555 18.9944 21.177L21.7064 18.465C21.7993 18.3722 21.873 18.262 21.9234 18.1407C21.9737 18.0194 21.9996 17.8894 21.9996 17.758C21.9996 17.6267 21.9737 17.4967 21.9234 17.3753C21.873 17.254 21.7993 17.1438 21.7064 17.051L17.7064 13.05ZM17.5794 19.762C16.3314 19.741 12.0614 19.406 8.70636 16.05C5.34036 12.684 5.01436 8.39904 4.99436 7.17604L6.99936 5.17104L9.58536 7.75704L8.29236 9.05004C8.17482 9.16749 8.0884 9.31237 8.04091 9.47161C7.99342 9.63084 7.98636 9.79939 8.02036 9.96204C8.04436 10.077 8.63136 12.804 10.2914 14.464C11.9514 16.124 14.6784 16.711 14.7934 16.735C14.9559 16.77 15.1246 16.7635 15.284 16.7161C15.4434 16.6688 15.5883 16.5821 15.7054 16.464L16.9994 15.171L19.5854 17.757L17.5794 19.762Z" fill="#1C1C1E"/>
</svg>
